<svg width="525" height="456" viewBox="0 0 525 456" fill="none" xmlns="http://www.w3.org/2000/svg">
<g opacity="0.3">
<path d="M6.39462 232.365C12.5249 208.876 21.2191 184.445 40.2783 169.411C65.2566 149.719 101.844 151.73 131.158 164.282C160.476 176.826 184.958 198.197 211.292 216.19C237.631 234.175 268.165 249.402 299.931 246.82C343.971 243.237 378.787 206.805 421.99 197.582C458.009 189.895 497.836 203.489 521.672 231.626" stroke="#18283C" stroke-width="0.4" stroke-miterlimit="10"/>
<path d="M27.238 244.404C33.0339 222.187 41.2614 199.069 59.2885 184.85C82.9186 166.221 117.528 168.123 145.256 179.997C172.998 191.868 196.148 212.083 221.058 229.102C245.967 246.121 274.862 260.521 304.906 258.076C346.578 254.687 379.502 220.221 420.373 211.502C454.445 204.232 492.124 217.092 514.668 243.708" stroke="#18283C" stroke-width="0.4" stroke-miterlimit="10"/>
<path d="M48.0982 256.445C53.5725 235.496 61.3158 213.703 78.3236 200.296C100.606 182.73 133.236 184.523 159.388 195.724C185.544 206.916 207.372 225.979 230.869 242.022C254.361 258.072 281.604 271.648 309.928 269.339C349.217 266.147 380.263 233.644 418.798 225.418C450.928 218.556 486.448 230.685 507.707 255.785" stroke="#18283C" stroke-width="0.4" stroke-miterlimit="10"/>
<path d="M68.965 268.491C74.1048 248.813 81.3815 228.333 97.3573 215.741C118.291 199.237 148.943 200.922 173.51 211.445C198.081 221.959 218.591 239.863 240.658 254.94C262.725 270.017 288.316 282.768 314.927 280.601C351.835 277.606 381.002 247.066 417.203 239.345C447.387 232.898 480.76 244.295 500.727 267.872" stroke="#18283C" stroke-width="0.4" stroke-miterlimit="10"/>
<path d="M89.8237 280.53C94.6337 262.116 101.447 242.962 116.383 231.18C135.96 215.735 164.642 217.316 187.623 227.16C210.61 236.996 229.797 253.749 250.439 267.852C271.08 281.955 295.028 293.886 319.926 291.862C354.457 289.055 381.749 260.491 415.614 253.262C443.851 247.232 475.076 257.895 493.751 279.951" stroke="#18283C" stroke-width="0.4" stroke-miterlimit="10"/>
</g>
</svg>
