<svg width="410" height="571" viewBox="0 0 410 571" fill="none" xmlns="http://www.w3.org/2000/svg">
<mask id="path-1-inside-1_1_737" fill="white">
<path fill-rule="evenodd" clip-rule="evenodd" d="M3.18314 23.351C-2.2071 16.2224 -0.555658 6.03906 6.65538 1.95057C9.89413 0.113755 21.4202 0 205 0C388.58 0 400.106 0.113755 403.345 1.95057C410.556 6.03906 412.207 16.2224 406.817 23.351C403.797 27.3459 399.109 28.9786 390.637 28.9864L384.374 28.9931V71.3725V113.752H205H25.6259V71.3725V28.9931L19.3629 28.9864C10.8912 28.9786 6.20344 27.3459 3.18314 23.351ZM3.18314 166.103C-2.2071 158.974 -0.555658 148.791 6.65538 144.702C9.89413 142.865 21.4202 142.752 205 142.752C388.58 142.752 400.106 142.865 403.345 144.702C410.556 148.791 412.207 158.974 406.817 166.103C403.797 170.098 399.109 171.73 390.637 171.738L384.374 171.745V285.5V399.255H205H25.6259V285.5V171.745L19.3629 171.738C10.8912 171.73 6.20344 170.098 3.18314 166.103ZM3.18314 451.606C-2.2071 444.477 -0.555658 434.294 6.65538 430.206C9.89413 428.369 21.4202 428.255 205 428.255C388.58 428.255 400.106 428.369 403.345 430.206C410.556 434.294 412.207 444.477 406.817 451.606C403.797 455.601 399.109 457.234 390.637 457.241L384.374 457.248V499.627V542.007L390.637 542.014C399.109 542.021 403.797 543.654 406.817 547.649C412.207 554.778 410.556 564.961 403.345 569.049C400.106 570.886 388.58 571 205 571C21.4202 571 9.89413 570.886 6.65538 569.049C-0.555658 564.961 -2.2071 554.778 3.18314 547.649C6.20344 543.654 10.8912 542.021 19.3629 542.014L25.6259 542.007V499.627V457.248L19.3629 457.241C10.8912 457.234 6.20344 455.601 3.18314 451.606Z"/>
</mask>
<path fill-rule="evenodd" clip-rule="evenodd" d="M3.18314 23.351C-2.2071 16.2224 -0.555658 6.03906 6.65538 1.95057C9.89413 0.113755 21.4202 0 205 0C388.58 0 400.106 0.113755 403.345 1.95057C410.556 6.03906 412.207 16.2224 406.817 23.351C403.797 27.3459 399.109 28.9786 390.637 28.9864L384.374 28.9931V71.3725V113.752H205H25.6259V71.3725V28.9931L19.3629 28.9864C10.8912 28.9786 6.20344 27.3459 3.18314 23.351ZM3.18314 166.103C-2.2071 158.974 -0.555658 148.791 6.65538 144.702C9.89413 142.865 21.4202 142.752 205 142.752C388.58 142.752 400.106 142.865 403.345 144.702C410.556 148.791 412.207 158.974 406.817 166.103C403.797 170.098 399.109 171.73 390.637 171.738L384.374 171.745V285.5V399.255H205H25.6259V285.5V171.745L19.3629 171.738C10.8912 171.73 6.20344 170.098 3.18314 166.103ZM3.18314 451.606C-2.2071 444.477 -0.555658 434.294 6.65538 430.206C9.89413 428.369 21.4202 428.255 205 428.255C388.58 428.255 400.106 428.369 403.345 430.206C410.556 434.294 412.207 444.477 406.817 451.606C403.797 455.601 399.109 457.234 390.637 457.241L384.374 457.248V499.627V542.007L390.637 542.014C399.109 542.021 403.797 543.654 406.817 547.649C412.207 554.778 410.556 564.961 403.345 569.049C400.106 570.886 388.58 571 205 571C21.4202 571 9.89413 570.886 6.65538 569.049C-0.555658 564.961 -2.2071 554.778 3.18314 547.649C6.20344 543.654 10.8912 542.021 19.3629 542.014L25.6259 542.007V499.627V457.248L19.3629 457.241C10.8912 457.234 6.20344 455.601 3.18314 451.606Z" fill="#E8E8E8" fill-opacity="0.3"/>
<path d="M6.65538 1.95057L7.64181 3.69038L7.64202 3.69026L6.65538 1.95057ZM3.18314 23.351L4.77849 22.1449L4.77843 22.1448L3.18314 23.351ZM403.345 1.95057L402.358 3.69026L402.358 3.69038L403.345 1.95057ZM406.817 23.351L405.222 22.1448L405.221 22.1449L406.817 23.351ZM390.637 28.9864L390.635 26.9864L390.635 26.9864L390.637 28.9864ZM384.374 28.9931L384.372 26.9931L382.374 26.9952V28.9931H384.374ZM384.374 113.752V115.752H386.374V113.752H384.374ZM25.6259 113.752H23.6259V115.752H25.6259V113.752ZM25.6259 28.9931H27.6259V26.9952L25.6281 26.9931L25.6259 28.9931ZM19.3629 28.9864L19.365 26.9864L19.3647 26.9864L19.3629 28.9864ZM6.65538 144.702L7.64181 146.442L7.64202 146.442L6.65538 144.702ZM3.18314 166.103L4.77849 164.897L4.77843 164.896L3.18314 166.103ZM403.345 144.702L402.358 146.442L402.358 146.442L403.345 144.702ZM406.817 166.103L405.222 164.896L405.222 164.897L406.817 166.103ZM390.637 171.738L390.635 169.738H390.635L390.637 171.738ZM384.374 171.745L384.372 169.745L382.374 169.747V171.745H384.374ZM384.374 399.255V401.255H386.374V399.255H384.374ZM25.6259 399.255H23.6259V401.255H25.6259V399.255ZM25.6259 171.745H27.6259V169.747L25.6281 169.745L25.6259 171.745ZM19.3629 171.738L19.365 169.738H19.3647L19.3629 171.738ZM6.65538 430.206L7.64181 431.945L7.64203 431.945L6.65538 430.206ZM3.18314 451.606L4.77849 450.4L4.77843 450.4L3.18314 451.606ZM403.345 430.206L402.358 431.945L402.358 431.945L403.345 430.206ZM406.817 451.606L405.222 450.4L405.222 450.4L406.817 451.606ZM390.637 457.241L390.635 455.241H390.635L390.637 457.241ZM384.374 457.248L384.372 455.248L382.374 455.25V457.248H384.374ZM384.374 542.007H382.374V544.005L384.372 544.007L384.374 542.007ZM390.637 542.014L390.635 544.014H390.635L390.637 542.014ZM406.817 547.649L405.222 548.855L405.222 548.855L406.817 547.649ZM403.345 569.049L402.358 567.31L402.358 567.31L403.345 569.049ZM6.65538 569.049L7.64201 567.31L7.64181 567.31L6.65538 569.049ZM3.18314 547.649L4.77843 548.855L4.77849 548.855L3.18314 547.649ZM19.3629 542.014L19.3647 544.014H19.365L19.3629 542.014ZM25.6259 542.007L25.6281 544.007L27.6259 544.005V542.007H25.6259ZM25.6259 457.248H27.6259V455.25L25.6281 455.248L25.6259 457.248ZM19.3629 457.241L19.365 455.241H19.3647L19.3629 457.241ZM5.66894 0.210755C-2.74203 4.97959 -4.42467 16.6057 1.58785 24.5573L4.77843 22.1448C0.0104602 15.8391 1.63071 7.09854 7.64181 3.69038L5.66894 0.210755ZM205 -2C113.216 -2 64.4265 -1.97159 38.1801 -1.71342C25.0674 -1.58445 17.5378 -1.39791 13.0753 -1.1254C8.73222 -0.860179 6.94076 -0.510539 5.66874 0.210873L7.64202 3.69026C7.98937 3.49327 8.8532 3.13988 13.3191 2.86717C17.6655 2.60175 25.0983 2.41544 38.2195 2.28638C64.4408 2.02847 113.204 2 205 2V-2ZM404.331 0.210875C403.059 -0.510539 401.268 -0.86018 396.925 -1.1254C392.462 -1.39791 384.933 -1.58445 371.82 -1.71342C345.574 -1.97159 296.784 -2 205 -2V2C296.796 2 345.559 2.02847 371.781 2.28638C384.902 2.41544 392.335 2.60175 396.681 2.86717C401.147 3.13988 402.011 3.49327 402.358 3.69026L404.331 0.210875ZM408.412 24.5573C414.425 16.6057 412.742 4.97959 404.331 0.210756L402.358 3.69038C408.369 7.09854 409.99 15.8391 405.222 22.1448L408.412 24.5573ZM390.639 30.9864C399.311 30.9784 404.816 29.3139 408.412 24.5572L405.221 22.1449C402.777 25.3778 398.906 26.9788 390.635 26.9864L390.639 30.9864ZM384.376 30.9931L390.639 30.9864L390.635 26.9864L384.372 26.9931L384.376 30.9931ZM386.374 71.3725V28.9931H382.374V71.3725H386.374ZM386.374 113.752V71.3725H382.374V113.752H386.374ZM205 115.752H384.374V111.752H205V115.752ZM25.6259 115.752H205V111.752H25.6259V115.752ZM23.6259 71.3725V113.752H27.6259V71.3725H23.6259ZM23.6259 28.9931V71.3725H27.6259V28.9931H23.6259ZM19.3607 30.9864L25.6238 30.9931L25.6281 26.9931L19.365 26.9864L19.3607 30.9864ZM1.58779 24.5572C5.1841 29.3139 10.6887 30.9784 19.361 30.9864L19.3647 26.9864C11.0937 26.9788 7.22277 25.3778 4.77849 22.1449L1.58779 24.5572ZM5.66894 142.962C-2.74203 147.731 -4.42467 159.357 1.58785 167.309L4.77843 164.896C0.0104607 158.591 1.63071 149.85 7.64181 146.442L5.66894 142.962ZM205 140.752C113.216 140.752 64.4265 140.78 38.1801 141.038C25.0674 141.167 17.5378 141.354 13.0753 141.626C8.73222 141.891 6.94077 142.241 5.66874 142.963L7.64202 146.442C7.98937 146.245 8.8532 145.892 13.3191 145.619C17.6655 145.353 25.0983 145.167 38.2195 145.038C64.4408 144.78 113.204 144.752 205 144.752V140.752ZM404.331 142.963C403.059 142.241 401.268 141.891 396.925 141.626C392.462 141.354 384.933 141.167 371.82 141.038C345.574 140.78 296.784 140.752 205 140.752V144.752C296.796 144.752 345.559 144.78 371.781 145.038C384.902 145.167 392.335 145.353 396.681 145.619C401.147 145.892 402.011 146.245 402.358 146.442L404.331 142.963ZM408.412 167.309C414.425 159.357 412.742 147.731 404.331 142.962L402.358 146.442C408.369 149.85 409.99 158.591 405.222 164.896L408.412 167.309ZM390.639 173.738C399.311 173.73 404.816 172.066 408.412 167.309L405.222 164.897C402.777 168.129 398.906 169.73 390.635 169.738L390.639 173.738ZM384.376 173.745L390.639 173.738L390.635 169.738L384.372 169.745L384.376 173.745ZM386.374 285.5V171.745H382.374V285.5H386.374ZM386.374 399.255V285.5H382.374V399.255H386.374ZM205 401.255H384.374V397.255H205V401.255ZM25.6259 401.255H205V397.255H25.6259V401.255ZM23.6259 285.5V399.255H27.6259V285.5H23.6259ZM23.6259 171.745V285.5H27.6259V171.745H23.6259ZM19.3607 173.738L25.6238 173.745L25.6281 169.745L19.365 169.738L19.3607 173.738ZM1.58779 167.309C5.1841 172.066 10.6887 173.73 19.361 173.738L19.3647 169.738C11.0937 169.73 7.22277 168.129 4.77849 164.897L1.58779 167.309ZM5.66894 428.466C-2.74203 433.235 -4.42467 444.861 1.58785 452.812L4.77843 450.4C0.0104614 444.094 1.63071 435.354 7.64181 431.945L5.66894 428.466ZM205 426.255C113.216 426.255 64.4265 426.283 38.1801 426.542C25.0674 426.671 17.5378 426.857 13.0753 427.13C8.73222 427.395 6.94076 427.744 5.66873 428.466L7.64203 431.945C7.98937 431.748 8.8532 431.395 13.3191 431.122C17.6655 430.857 25.0983 430.67 38.2195 430.541C64.4408 430.283 113.204 430.255 205 430.255V426.255ZM404.331 428.466C403.059 427.744 401.268 427.395 396.925 427.13C392.462 426.857 384.933 426.671 371.82 426.542C345.574 426.283 296.784 426.255 205 426.255V430.255C296.796 430.255 345.559 430.283 371.781 430.541C384.902 430.67 392.335 430.857 396.681 431.122C401.147 431.395 402.011 431.748 402.358 431.945L404.331 428.466ZM408.412 452.812C414.425 444.861 412.742 433.235 404.331 428.466L402.358 431.945C408.369 435.354 409.99 444.094 405.222 450.4L408.412 452.812ZM390.639 459.241C399.311 459.233 404.816 457.569 408.412 452.812L405.222 450.4C402.777 453.633 398.906 455.234 390.635 455.241L390.639 459.241ZM384.376 459.248L390.639 459.241L390.635 455.241L384.372 455.248L384.376 459.248ZM386.374 499.627V457.248H382.374V499.627H386.374ZM386.374 542.007V499.627H382.374V542.007H386.374ZM390.639 540.014L384.376 540.007L384.372 544.007L390.635 544.014L390.639 540.014ZM408.412 546.443C404.816 541.686 399.311 540.022 390.639 540.014L390.635 544.014C398.906 544.021 402.777 545.622 405.222 548.855L408.412 546.443ZM404.331 570.789C412.742 566.02 414.425 554.394 408.412 546.443L405.222 548.855C409.99 555.161 408.369 563.901 402.358 567.31L404.331 570.789ZM205 573C296.784 573 345.574 572.972 371.82 572.713C384.933 572.584 392.462 572.398 396.925 572.125C401.268 571.86 403.059 571.51 404.331 570.789L402.358 567.31C402.011 567.507 401.147 567.86 396.681 568.133C392.335 568.398 384.902 568.585 371.781 568.714C345.559 568.971 296.796 569 205 569V573ZM5.66875 570.789C6.94077 571.51 8.73222 571.86 13.0753 572.125C17.5378 572.398 25.0674 572.584 38.1801 572.713C64.4265 572.972 113.216 573 205 573V569C113.204 569 64.4408 568.971 38.2195 568.714C25.0983 568.585 17.6655 568.398 13.3191 568.133C8.8532 567.86 7.98937 567.507 7.64201 567.31L5.66875 570.789ZM1.58785 546.443C-4.42467 554.394 -2.74203 566.02 5.66894 570.789L7.64181 567.31C1.63071 563.901 0.0104614 555.161 4.77843 548.855L1.58785 546.443ZM19.361 540.014C10.6887 540.022 5.1841 541.686 1.58779 546.443L4.77849 548.855C7.22277 545.622 11.0937 544.021 19.3647 544.014L19.361 540.014ZM25.6238 540.007L19.3607 540.014L19.365 544.014L25.6281 544.007L25.6238 540.007ZM23.6259 499.627V542.007H27.6259V499.627H23.6259ZM23.6259 457.248V499.627H27.6259V457.248H23.6259ZM19.3607 459.241L25.6238 459.248L25.6281 455.248L19.365 455.241L19.3607 459.241ZM1.58779 452.812C5.1841 457.569 10.6887 459.233 19.361 459.241L19.3647 455.241C11.0937 455.234 7.22277 453.633 4.77849 450.4L1.58779 452.812Z" fill="#51AB34" fill-opacity="0.14" mask="url(#path-1-inside-1_1_737)"/>
<path d="M6.65538 1.95057L7.64181 3.69038L7.64202 3.69026L6.65538 1.95057ZM3.18314 23.351L4.77849 22.1449L4.77843 22.1448L3.18314 23.351ZM403.345 1.95057L402.358 3.69026L402.358 3.69038L403.345 1.95057ZM406.817 23.351L405.222 22.1448L405.221 22.1449L406.817 23.351ZM390.637 28.9864L390.635 26.9864L390.635 26.9864L390.637 28.9864ZM384.374 28.9931L384.372 26.9931L382.374 26.9952V28.9931H384.374ZM384.374 113.752V115.752H386.374V113.752H384.374ZM25.6259 113.752H23.6259V115.752H25.6259V113.752ZM25.6259 28.9931H27.6259V26.9952L25.6281 26.9931L25.6259 28.9931ZM19.3629 28.9864L19.365 26.9864L19.3647 26.9864L19.3629 28.9864ZM6.65538 144.702L7.64181 146.442L7.64202 146.442L6.65538 144.702ZM3.18314 166.103L4.77849 164.897L4.77843 164.896L3.18314 166.103ZM403.345 144.702L402.358 146.442L402.358 146.442L403.345 144.702ZM406.817 166.103L405.222 164.896L405.222 164.897L406.817 166.103ZM390.637 171.738L390.635 169.738H390.635L390.637 171.738ZM384.374 171.745L384.372 169.745L382.374 169.747V171.745H384.374ZM384.374 399.255V401.255H386.374V399.255H384.374ZM25.6259 399.255H23.6259V401.255H25.6259V399.255ZM25.6259 171.745H27.6259V169.747L25.6281 169.745L25.6259 171.745ZM19.3629 171.738L19.365 169.738H19.3647L19.3629 171.738ZM6.65538 430.206L7.64181 431.945L7.64203 431.945L6.65538 430.206ZM3.18314 451.606L4.77849 450.4L4.77843 450.4L3.18314 451.606ZM403.345 430.206L402.358 431.945L402.358 431.945L403.345 430.206ZM406.817 451.606L405.222 450.4L405.222 450.4L406.817 451.606ZM390.637 457.241L390.635 455.241H390.635L390.637 457.241ZM384.374 457.248L384.372 455.248L382.374 455.25V457.248H384.374ZM384.374 542.007H382.374V544.005L384.372 544.007L384.374 542.007ZM390.637 542.014L390.635 544.014H390.635L390.637 542.014ZM406.817 547.649L405.222 548.855L405.222 548.855L406.817 547.649ZM403.345 569.049L402.358 567.31L402.358 567.31L403.345 569.049ZM6.65538 569.049L7.64201 567.31L7.64181 567.31L6.65538 569.049ZM3.18314 547.649L4.77843 548.855L4.77849 548.855L3.18314 547.649ZM19.3629 542.014L19.3647 544.014H19.365L19.3629 542.014ZM25.6259 542.007L25.6281 544.007L27.6259 544.005V542.007H25.6259ZM25.6259 457.248H27.6259V455.25L25.6281 455.248L25.6259 457.248ZM19.3629 457.241L19.365 455.241H19.3647L19.3629 457.241ZM5.66894 0.210755C-2.74203 4.97959 -4.42467 16.6057 1.58785 24.5573L4.77843 22.1448C0.0104602 15.8391 1.63071 7.09854 7.64181 3.69038L5.66894 0.210755ZM205 -2C113.216 -2 64.4265 -1.97159 38.1801 -1.71342C25.0674 -1.58445 17.5378 -1.39791 13.0753 -1.1254C8.73222 -0.860179 6.94076 -0.510539 5.66874 0.210873L7.64202 3.69026C7.98937 3.49327 8.8532 3.13988 13.3191 2.86717C17.6655 2.60175 25.0983 2.41544 38.2195 2.28638C64.4408 2.02847 113.204 2 205 2V-2ZM404.331 0.210875C403.059 -0.510539 401.268 -0.86018 396.925 -1.1254C392.462 -1.39791 384.933 -1.58445 371.82 -1.71342C345.574 -1.97159 296.784 -2 205 -2V2C296.796 2 345.559 2.02847 371.781 2.28638C384.902 2.41544 392.335 2.60175 396.681 2.86717C401.147 3.13988 402.011 3.49327 402.358 3.69026L404.331 0.210875ZM408.412 24.5573C414.425 16.6057 412.742 4.97959 404.331 0.210756L402.358 3.69038C408.369 7.09854 409.99 15.8391 405.222 22.1448L408.412 24.5573ZM390.639 30.9864C399.311 30.9784 404.816 29.3139 408.412 24.5572L405.221 22.1449C402.777 25.3778 398.906 26.9788 390.635 26.9864L390.639 30.9864ZM384.376 30.9931L390.639 30.9864L390.635 26.9864L384.372 26.9931L384.376 30.9931ZM386.374 71.3725V28.9931H382.374V71.3725H386.374ZM386.374 113.752V71.3725H382.374V113.752H386.374ZM205 115.752H384.374V111.752H205V115.752ZM25.6259 115.752H205V111.752H25.6259V115.752ZM23.6259 71.3725V113.752H27.6259V71.3725H23.6259ZM23.6259 28.9931V71.3725H27.6259V28.9931H23.6259ZM19.3607 30.9864L25.6238 30.9931L25.6281 26.9931L19.365 26.9864L19.3607 30.9864ZM1.58779 24.5572C5.1841 29.3139 10.6887 30.9784 19.361 30.9864L19.3647 26.9864C11.0937 26.9788 7.22277 25.3778 4.77849 22.1449L1.58779 24.5572ZM5.66894 142.962C-2.74203 147.731 -4.42467 159.357 1.58785 167.309L4.77843 164.896C0.0104607 158.591 1.63071 149.85 7.64181 146.442L5.66894 142.962ZM205 140.752C113.216 140.752 64.4265 140.78 38.1801 141.038C25.0674 141.167 17.5378 141.354 13.0753 141.626C8.73222 141.891 6.94077 142.241 5.66874 142.963L7.64202 146.442C7.98937 146.245 8.8532 145.892 13.3191 145.619C17.6655 145.353 25.0983 145.167 38.2195 145.038C64.4408 144.78 113.204 144.752 205 144.752V140.752ZM404.331 142.963C403.059 142.241 401.268 141.891 396.925 141.626C392.462 141.354 384.933 141.167 371.82 141.038C345.574 140.78 296.784 140.752 205 140.752V144.752C296.796 144.752 345.559 144.78 371.781 145.038C384.902 145.167 392.335 145.353 396.681 145.619C401.147 145.892 402.011 146.245 402.358 146.442L404.331 142.963ZM408.412 167.309C414.425 159.357 412.742 147.731 404.331 142.962L402.358 146.442C408.369 149.85 409.99 158.591 405.222 164.896L408.412 167.309ZM390.639 173.738C399.311 173.73 404.816 172.066 408.412 167.309L405.222 164.897C402.777 168.129 398.906 169.73 390.635 169.738L390.639 173.738ZM384.376 173.745L390.639 173.738L390.635 169.738L384.372 169.745L384.376 173.745ZM386.374 285.5V171.745H382.374V285.5H386.374ZM386.374 399.255V285.5H382.374V399.255H386.374ZM205 401.255H384.374V397.255H205V401.255ZM25.6259 401.255H205V397.255H25.6259V401.255ZM23.6259 285.5V399.255H27.6259V285.5H23.6259ZM23.6259 171.745V285.5H27.6259V171.745H23.6259ZM19.3607 173.738L25.6238 173.745L25.6281 169.745L19.365 169.738L19.3607 173.738ZM1.58779 167.309C5.1841 172.066 10.6887 173.73 19.361 173.738L19.3647 169.738C11.0937 169.73 7.22277 168.129 4.77849 164.897L1.58779 167.309ZM5.66894 428.466C-2.74203 433.235 -4.42467 444.861 1.58785 452.812L4.77843 450.4C0.0104614 444.094 1.63071 435.354 7.64181 431.945L5.66894 428.466ZM205 426.255C113.216 426.255 64.4265 426.283 38.1801 426.542C25.0674 426.671 17.5378 426.857 13.0753 427.13C8.73222 427.395 6.94076 427.744 5.66873 428.466L7.64203 431.945C7.98937 431.748 8.8532 431.395 13.3191 431.122C17.6655 430.857 25.0983 430.67 38.2195 430.541C64.4408 430.283 113.204 430.255 205 430.255V426.255ZM404.331 428.466C403.059 427.744 401.268 427.395 396.925 427.13C392.462 426.857 384.933 426.671 371.82 426.542C345.574 426.283 296.784 426.255 205 426.255V430.255C296.796 430.255 345.559 430.283 371.781 430.541C384.902 430.67 392.335 430.857 396.681 431.122C401.147 431.395 402.011 431.748 402.358 431.945L404.331 428.466ZM408.412 452.812C414.425 444.861 412.742 433.235 404.331 428.466L402.358 431.945C408.369 435.354 409.99 444.094 405.222 450.4L408.412 452.812ZM390.639 459.241C399.311 459.233 404.816 457.569 408.412 452.812L405.222 450.4C402.777 453.633 398.906 455.234 390.635 455.241L390.639 459.241ZM384.376 459.248L390.639 459.241L390.635 455.241L384.372 455.248L384.376 459.248ZM386.374 499.627V457.248H382.374V499.627H386.374ZM386.374 542.007V499.627H382.374V542.007H386.374ZM390.639 540.014L384.376 540.007L384.372 544.007L390.635 544.014L390.639 540.014ZM408.412 546.443C404.816 541.686 399.311 540.022 390.639 540.014L390.635 544.014C398.906 544.021 402.777 545.622 405.222 548.855L408.412 546.443ZM404.331 570.789C412.742 566.02 414.425 554.394 408.412 546.443L405.222 548.855C409.99 555.161 408.369 563.901 402.358 567.31L404.331 570.789ZM205 573C296.784 573 345.574 572.972 371.82 572.713C384.933 572.584 392.462 572.398 396.925 572.125C401.268 571.86 403.059 571.51 404.331 570.789L402.358 567.31C402.011 567.507 401.147 567.86 396.681 568.133C392.335 568.398 384.902 568.585 371.781 568.714C345.559 568.971 296.796 569 205 569V573ZM5.66875 570.789C6.94077 571.51 8.73222 571.86 13.0753 572.125C17.5378 572.398 25.0674 572.584 38.1801 572.713C64.4265 572.972 113.216 573 205 573V569C113.204 569 64.4408 568.971 38.2195 568.714C25.0983 568.585 17.6655 568.398 13.3191 568.133C8.8532 567.86 7.98937 567.507 7.64201 567.31L5.66875 570.789ZM1.58785 546.443C-4.42467 554.394 -2.74203 566.02 5.66894 570.789L7.64181 567.31C1.63071 563.901 0.0104614 555.161 4.77843 548.855L1.58785 546.443ZM19.361 540.014C10.6887 540.022 5.1841 541.686 1.58779 546.443L4.77849 548.855C7.22277 545.622 11.0937 544.021 19.3647 544.014L19.361 540.014ZM25.6238 540.007L19.3607 540.014L19.365 544.014L25.6281 544.007L25.6238 540.007ZM23.6259 499.627V542.007H27.6259V499.627H23.6259ZM23.6259 457.248V499.627H27.6259V457.248H23.6259ZM19.3607 459.241L25.6238 459.248L25.6281 455.248L19.365 455.241L19.3607 459.241ZM1.58779 452.812C5.1841 457.569 10.6887 459.233 19.361 459.241L19.3647 455.241C11.0937 455.234 7.22277 453.633 4.77849 450.4L1.58779 452.812Z" fill="black" fill-opacity="0.1" mask="url(#path-1-inside-1_1_737)"/>
<path fill-rule="evenodd" clip-rule="evenodd" d="M228.779 39.3999C224.132 40.1827 221.711 42.4706 220.003 47.6927C219.189 50.1778 219.004 52.0579 218.965 58.1905C218.934 63.0739 219.149 66.5793 219.584 68.3119C221.609 76.3801 224.944 78.3577 235.558 77.7822C243.555 77.3484 243.823 77.2617 243.823 75.102V73.3288L237.797 73.5288C230.627 73.7664 228.85 73.4951 226.906 71.866C224.661 69.9839 223.848 66.4771 223.848 58.6725C223.848 45.2752 226.317 42.6041 237.888 43.4842C240.221 43.6615 242.511 43.9131 242.977 44.0428C243.68 44.2384 243.823 43.956 243.823 42.3703C243.823 40.147 243.868 40.1668 237.276 39.4149C232.457 38.8645 231.96 38.864 228.779 39.3999ZM259.68 39.4337C256.264 39.9325 254.556 40.7851 252.657 42.94C249.937 46.0256 249.387 48.6731 249.387 58.6725C249.387 68.443 249.925 71.2076 252.394 74.1317C254.825 77.0091 256.925 77.6733 263.659 77.693C270.695 77.7133 273.375 76.9614 275.71 74.312C277.931 71.7918 278.732 68.51 279.012 60.7758C279.548 45.9581 276.875 40.6593 268.233 39.4154C264.419 38.8659 263.554 38.8678 259.68 39.4337ZM89.1263 58.5255L89.253 77.7104H91.672H94.0909L94.3328 62.9225L94.5747 48.1342L99.8669 56.4159C102.778 60.9706 106.067 66.1069 107.176 67.83C108.286 69.553 110.203 72.535 111.436 74.4571C113.607 77.8415 113.739 77.9514 115.616 77.9514H117.555V58.6725V39.3937H115.136H112.717V54.0938C112.717 62.1789 112.554 68.7877 112.354 68.7795C112.154 68.7717 110.4 66.2231 108.457 63.1163C106.513 60.0095 102.339 53.4552 99.1823 48.5511L93.4421 39.6347L91.2211 39.4877L89 39.3402L89.1263 58.5255ZM128.908 40.3566C125.122 42.2238 125.053 42.5491 125.053 58.6725C125.053 72.1373 125.106 72.9798 126.045 74.5776C127.889 77.7123 130.748 78.2781 141.926 77.7215L149.001 77.3691V75.4914V73.6136H141.574C133.858 73.6136 131.42 73.1808 130.607 71.6669C130.346 71.1821 130.133 68.4936 130.133 65.6929V60.6004H138.358H146.582V58.6725V56.7446L139.446 56.7379C135.521 56.7345 131.821 56.6005 131.222 56.441C130.182 56.1634 130.133 55.9262 130.133 51.1991C130.133 43.8003 129.838 44.0105 140.491 43.8211L149.001 43.6692V41.845V40.0212L144.284 39.7098C135.354 39.1209 131.047 39.3016 128.908 40.3566ZM154.863 40.4781C155.179 41.0748 157.813 45.3277 160.717 49.9296C163.62 54.5314 165.89 58.5727 165.76 58.9106C165.63 59.2485 163.244 63.2084 160.458 67.7105C153.384 79.1409 153.802 77.9514 156.868 77.9514C159.796 77.9514 158.658 79.2768 165.336 68.0883C167.004 65.2953 168.528 63.0165 168.723 63.0238C168.918 63.0315 169.825 64.2783 170.737 65.7951C171.65 67.3119 173.767 70.6673 175.44 73.2521L178.483 77.9514H180.916C182.255 77.9514 183.35 77.774 183.35 77.5571C183.35 77.3407 181.218 73.8161 178.613 69.7251C176.007 65.6346 173.401 61.5118 172.82 60.5642L171.765 58.8417L175.301 53.0937C177.245 49.9324 179.962 45.5571 181.338 43.3699L183.84 39.3937L181.055 39.3994L178.27 39.4057L173.916 46.8609C171.521 50.961 169.353 54.2509 169.098 54.1714C168.843 54.0919 166.576 50.7345 164.059 46.7105L159.483 39.3937H156.886C154.345 39.3937 154.301 39.4173 154.863 40.4781ZM186.736 41.5625V43.7314H192.542H198.347V60.8414V77.9514H200.766H203.185V60.8414V43.7314H208.991H214.796V41.5625V39.3937H200.766H186.736V41.5625ZM286.397 58.6368V77.9514H288.804H291.21L291.343 70.1193L291.477 62.2873L295.351 62.149C297.952 62.0564 299.497 62.215 300.052 62.631C300.505 62.9722 302.405 66.5045 304.273 70.4808L307.668 77.7104L310.095 77.8559C311.429 77.9364 312.521 77.8984 312.521 77.7716C312.521 77.6448 310.799 73.9568 308.694 69.5761L304.866 61.6111L306.492 61.0761C310.305 59.823 312.481 54.8196 311.82 48.8249C311.392 44.932 309.975 42.1033 307.77 40.7374C306.095 39.6992 305.415 39.6255 296.193 39.4785L286.397 39.3228V58.6368ZM322.715 40.2381C321.803 40.7013 320.605 41.6927 320.054 42.4402C319.101 43.7348 319.046 44.5021 318.922 58.3453C318.798 72.1051 318.843 72.9741 319.746 74.4311C321.817 77.7764 324.084 78.2511 335.448 77.7205L343 77.3677V75.5304V73.6932L334.491 73.5331L325.982 73.3726L324.799 72.0014C323.688 70.7136 323.624 70.3324 323.753 65.7358L323.89 60.8414L332.236 60.7093L340.581 60.5778V58.661V56.7446L333.203 56.7379C329.145 56.7345 325.335 56.6005 324.737 56.441C323.702 56.1643 323.648 55.918 323.648 51.4135C323.648 47.1028 323.753 46.5553 324.815 45.3248L325.981 43.9724L334.491 43.8211L343 43.6692V41.845V40.0212L338.283 39.7098C329.641 39.1397 324.536 39.3127 322.715 40.2381ZM267.923 43.7574C272.479 44.7305 273.77 47.3182 274.165 56.2627C274.761 69.7569 272.499 73.6286 264.037 73.603C259.069 73.5881 256.703 72.4535 255.293 69.4108C254.32 67.3128 254.225 66.3532 254.225 58.6725C254.225 51.0506 254.325 50.0216 255.268 47.9891C255.842 46.7524 256.881 45.3687 257.578 44.9137C260.009 43.327 263.882 42.8937 267.923 43.7574ZM304.026 44.2876C305.789 45.0886 306.761 46.8329 307.028 49.6784C307.334 52.9414 306.341 56.1383 304.627 57.4131C303.437 58.2985 302.593 58.4161 297.378 58.4233L291.477 58.4315L291.343 51.0815L291.209 43.7314H297.005C300.354 43.7314 303.317 43.9661 304.026 44.2876Z" fill="#12AD0A"/>
<path fill-rule="evenodd" clip-rule="evenodd" d="M201.973 203.988C202.674 203.553 203.248 202.67 203.248 202.023C203.248 200.033 201.409 200.646 189.607 206.565C161.825 220.499 148.165 239.838 151.888 259.964C154.285 272.922 159.793 281.862 175.971 299.053C194.227 318.452 199.524 327.828 199.474 340.649C199.445 347.996 197.041 357.495 192.717 367.346C192.188 368.548 192.274 369.533 192.905 369.533C195.272 369.533 211.854 354.424 218.051 346.622C232.547 328.369 235.05 313.89 226.654 296.869C223.86 291.204 217.887 282.722 211.352 275.137C194.243 255.281 188.983 242.062 192.026 226.565C193.479 219.169 199.489 205.525 201.973 203.988ZM237.387 255.212C213.898 235.218 209.24 228.529 208.447 213.654C208.181 208.671 207.494 204.595 206.92 204.595C206.347 204.595 203.743 208.924 201.134 214.214C196.822 222.952 196.388 224.756 196.388 233.921C196.388 242.813 196.869 244.966 200.448 252.104C202.681 256.556 209.577 266.066 215.771 273.237C222.268 280.758 228.73 289.746 231.042 294.479C234.703 301.975 235.049 303.714 235.049 314.633C235.049 325.892 234.783 327.119 230.456 335.855C227.929 340.954 226.066 345.33 226.315 345.58C227.329 346.597 238.035 338.06 245.375 330.382C254.706 320.62 259.437 311.09 260.278 300.358C261.435 285.61 252.579 268.144 237.387 255.212ZM172.977 302.616C165.17 294.331 157.722 285.757 156.427 283.561C155.132 281.364 153.676 279.567 153.191 279.567C150.882 279.567 149.002 289.947 149 302.711C148.998 320.966 151.051 325.147 166.494 338.315C178.894 348.888 182.779 353.833 184.886 361.724C185.667 364.644 186.693 367.034 187.167 367.034C187.641 367.034 189.579 362.776 191.474 357.571C198.97 336.977 195.421 326.429 172.977 302.616Z" fill="#12AD0A"/>
</svg>
