<svg width="477" height="312" viewBox="0 0 477 312" fill="none" xmlns="http://www.w3.org/2000/svg">
<circle cx="327" cy="164" r="4" fill="#F3F3FA"/>
<circle cx="327" cy="180" r="4" fill="#F3F3FA"/>
<circle cx="327" cy="196" r="4" fill="#F3F3FA"/>
<circle cx="327" cy="212" r="4" fill="#F3F3FA"/>
<circle cx="327" cy="228" r="4" fill="#F3F3FA"/>
<circle cx="327" cy="244" r="4" fill="#F3F3FA"/>
<circle cx="327" cy="260" r="4" fill="#F3F3FA"/>
<circle cx="327" cy="276" r="4" fill="#F3F3FA"/>
<circle cx="327" cy="292" r="4" fill="#F3F3FA"/>
<circle cx="327" cy="308" r="4" fill="#F3F3FA"/>
<circle cx="424" cy="164" r="4" fill="#F3F3FA"/>
<circle cx="424" cy="180" r="4" fill="#F3F3FA"/>
<circle cx="424" cy="196" r="4" fill="#F3F3FA"/>
<circle cx="424" cy="212" r="4" fill="#F3F3FA"/>
<circle cx="424" cy="228" r="4" fill="#F3F3FA"/>
<circle cx="424" cy="244" r="4" fill="#F3F3FA"/>
<circle cx="424" cy="260" r="4" fill="#F3F3FA"/>
<circle cx="424" cy="276" r="4" fill="#F3F3FA"/>
<circle cx="424" cy="292" r="4" fill="#F3F3FA"/>
<circle cx="424" cy="308" r="4" fill="#F3F3FA"/>
<circle cx="376" cy="164" r="4" fill="#F3F3FA"/>
<circle cx="376" cy="180" r="4" fill="#F3F3FA"/>
<circle cx="376" cy="196" r="4" fill="#F3F3FA"/>
<circle cx="376" cy="212" r="4" fill="#F3F3FA"/>
<circle cx="376" cy="228" r="4" fill="#F3F3FA"/>
<circle cx="376" cy="244" r="4" fill="#F3F3FA"/>
<circle cx="376" cy="260" r="4" fill="#F3F3FA"/>
<circle cx="376" cy="276" r="4" fill="#F3F3FA"/>
<circle cx="376" cy="292" r="4" fill="#F3F3FA"/>
<circle cx="376" cy="308" r="4" fill="#F3F3FA"/>
<circle cx="473" cy="164" r="4" fill="#F3F3FA"/>
<circle cx="473" cy="180" r="4" fill="#F3F3FA"/>
<circle cx="473" cy="196" r="4" fill="#F3F3FA"/>
<circle cx="473" cy="212" r="4" fill="#F3F3FA"/>
<circle cx="473" cy="228" r="4" fill="#F3F3FA"/>
<circle cx="473" cy="244" r="4" fill="#F3F3FA"/>
<circle cx="473" cy="260" r="4" fill="#F3F3FA"/>
<circle cx="473" cy="276" r="4" fill="#F3F3FA"/>
<circle cx="473" cy="292" r="4" fill="#F3F3FA"/>
<circle cx="473" cy="308" r="4" fill="#F3F3FA"/>
<circle cx="343" cy="164" r="4" fill="#F3F3FA"/>
<circle cx="343" cy="180" r="4" fill="#F3F3FA"/>
<circle cx="343" cy="196" r="4" fill="#F3F3FA"/>
<circle cx="343" cy="212" r="4" fill="#F3F3FA"/>
<circle cx="343" cy="228" r="4" fill="#F3F3FA"/>
<circle cx="343" cy="244" r="4" fill="#F3F3FA"/>
<circle cx="343" cy="260" r="4" fill="#F3F3FA"/>
<circle cx="343" cy="276" r="4" fill="#F3F3FA"/>
<circle cx="343" cy="292" r="4" fill="#F3F3FA"/>
<circle cx="343" cy="308" r="4" fill="#F3F3FA"/>
<circle cx="440" cy="164" r="4" fill="#F3F3FA"/>
<circle cx="440" cy="180" r="4" fill="#F3F3FA"/>
<circle cx="440" cy="196" r="4" fill="#F3F3FA"/>
<circle cx="440" cy="212" r="4" fill="#F3F3FA"/>
<circle cx="440" cy="228" r="4" fill="#F3F3FA"/>
<circle cx="440" cy="244" r="4" fill="#F3F3FA"/>
<circle cx="440" cy="260" r="4" fill="#F3F3FA"/>
<circle cx="440" cy="276" r="4" fill="#F3F3FA"/>
<circle cx="440" cy="292" r="4" fill="#F3F3FA"/>
<circle cx="440" cy="308" r="4" fill="#F3F3FA"/>
<circle cx="392" cy="164" r="4" fill="#F3F3FA"/>
<circle cx="392" cy="180" r="4" fill="#F3F3FA"/>
<circle cx="392" cy="196" r="4" fill="#F3F3FA"/>
<circle cx="392" cy="212" r="4" fill="#F3F3FA"/>
<circle cx="392" cy="228" r="4" fill="#F3F3FA"/>
<circle cx="392" cy="244" r="4" fill="#F3F3FA"/>
<circle cx="392" cy="260" r="4" fill="#F3F3FA"/>
<circle cx="392" cy="276" r="4" fill="#F3F3FA"/>
<circle cx="392" cy="292" r="4" fill="#F3F3FA"/>
<circle cx="392" cy="308" r="4" fill="#F3F3FA"/>
<circle cx="359" cy="164" r="4" fill="#F3F3FA"/>
<circle cx="359" cy="180" r="4" fill="#F3F3FA"/>
<circle cx="359" cy="196" r="4" fill="#F3F3FA"/>
<circle cx="359" cy="212" r="4" fill="#F3F3FA"/>
<circle cx="359" cy="228" r="4" fill="#F3F3FA"/>
<circle cx="359" cy="244" r="4" fill="#F3F3FA"/>
<circle cx="359" cy="260" r="4" fill="#F3F3FA"/>
<circle cx="359" cy="276" r="4" fill="#F3F3FA"/>
<circle cx="359" cy="292" r="4" fill="#F3F3FA"/>
<circle cx="359" cy="308" r="4" fill="#F3F3FA"/>
<circle cx="456" cy="164" r="4" fill="#F3F3FA"/>
<circle cx="456" cy="180" r="4" fill="#F3F3FA"/>
<circle cx="456" cy="196" r="4" fill="#F3F3FA"/>
<circle cx="456" cy="212" r="4" fill="#F3F3FA"/>
<circle cx="456" cy="228" r="4" fill="#F3F3FA"/>
<circle cx="456" cy="244" r="4" fill="#F3F3FA"/>
<circle cx="456" cy="260" r="4" fill="#F3F3FA"/>
<circle cx="456" cy="276" r="4" fill="#F3F3FA"/>
<circle cx="456" cy="292" r="4" fill="#F3F3FA"/>
<circle cx="456" cy="308" r="4" fill="#F3F3FA"/>
<circle cx="408" cy="164" r="4" fill="#F3F3FA"/>
<circle cx="408" cy="180" r="4" fill="#F3F3FA"/>
<circle cx="408" cy="196" r="4" fill="#F3F3FA"/>
<circle cx="408" cy="212" r="4" fill="#F3F3FA"/>
<circle cx="408" cy="228" r="4" fill="#F3F3FA"/>
<circle cx="408" cy="244" r="4" fill="#F3F3FA"/>
<circle cx="408" cy="260" r="4" fill="#F3F3FA"/>
<circle cx="408" cy="276" r="4" fill="#F3F3FA"/>
<circle cx="408" cy="292" r="4" fill="#F3F3FA"/>
<circle cx="408" cy="308" r="4" fill="#F3F3FA"/>
<circle cx="165" cy="132" r="4" fill="#F3F3FA"/>
<circle cx="165" cy="148" r="4" fill="#F3F3FA"/>
<circle cx="165" cy="164" r="4" fill="#F3F3FA"/>
<circle cx="165" cy="180" r="4" fill="#F3F3FA"/>
<circle cx="165" cy="196" r="4" fill="#F3F3FA"/>
<circle cx="165" cy="212" r="4" fill="#F3F3FA"/>
<circle cx="165" cy="228" r="4" fill="#F3F3FA"/>
<circle cx="165" cy="244" r="4" fill="#F3F3FA"/>
<circle cx="165" cy="260" r="4" fill="#F3F3FA"/>
<circle cx="165" cy="276" r="4" fill="#F3F3FA"/>
<circle cx="262" cy="132" r="4" fill="#F3F3FA"/>
<circle cx="262" cy="148" r="4" fill="#F3F3FA"/>
<circle cx="262" cy="164" r="4" fill="#F3F3FA"/>
<circle cx="262" cy="180" r="4" fill="#F3F3FA"/>
<circle cx="262" cy="196" r="4" fill="#F3F3FA"/>
<circle cx="262" cy="212" r="4" fill="#F3F3FA"/>
<circle cx="262" cy="228" r="4" fill="#F3F3FA"/>
<circle cx="262" cy="244" r="4" fill="#F3F3FA"/>
<circle cx="262" cy="260" r="4" fill="#F3F3FA"/>
<circle cx="262" cy="276" r="4" fill="#F3F3FA"/>
<circle cx="214" cy="132" r="4" fill="#F3F3FA"/>
<circle cx="214" cy="148" r="4" fill="#F3F3FA"/>
<circle cx="214" cy="164" r="4" fill="#F3F3FA"/>
<circle cx="214" cy="180" r="4" fill="#F3F3FA"/>
<circle cx="214" cy="196" r="4" fill="#F3F3FA"/>
<circle cx="214" cy="212" r="4" fill="#F3F3FA"/>
<circle cx="214" cy="228" r="4" fill="#F3F3FA"/>
<circle cx="214" cy="244" r="4" fill="#F3F3FA"/>
<circle cx="214" cy="260" r="4" fill="#F3F3FA"/>
<circle cx="214" cy="276" r="4" fill="#F3F3FA"/>
<circle cx="311" cy="132" r="4" fill="#F3F3FA"/>
<circle cx="311" cy="148" r="4" fill="#F3F3FA"/>
<circle cx="311" cy="164" r="4" fill="#F3F3FA"/>
<circle cx="311" cy="180" r="4" fill="#F3F3FA"/>
<circle cx="311" cy="196" r="4" fill="#F3F3FA"/>
<circle cx="311" cy="212" r="4" fill="#F3F3FA"/>
<circle cx="311" cy="228" r="4" fill="#F3F3FA"/>
<circle cx="311" cy="244" r="4" fill="#F3F3FA"/>
<circle cx="311" cy="260" r="4" fill="#F3F3FA"/>
<circle cx="311" cy="276" r="4" fill="#F3F3FA"/>
<circle cx="181" cy="132" r="4" fill="#F3F3FA"/>
<circle cx="181" cy="148" r="4" fill="#F3F3FA"/>
<circle cx="181" cy="164" r="4" fill="#F3F3FA"/>
<circle cx="181" cy="180" r="4" fill="#F3F3FA"/>
<circle cx="181" cy="196" r="4" fill="#F3F3FA"/>
<circle cx="181" cy="212" r="4" fill="#F3F3FA"/>
<circle cx="181" cy="228" r="4" fill="#F3F3FA"/>
<circle cx="181" cy="244" r="4" fill="#F3F3FA"/>
<circle cx="181" cy="260" r="4" fill="#F3F3FA"/>
<circle cx="181" cy="276" r="4" fill="#F3F3FA"/>
<circle cx="278" cy="132" r="4" fill="#F3F3FA"/>
<circle cx="278" cy="148" r="4" fill="#F3F3FA"/>
<circle cx="278" cy="164" r="4" fill="#F3F3FA"/>
<circle cx="278" cy="180" r="4" fill="#F3F3FA"/>
<circle cx="278" cy="196" r="4" fill="#F3F3FA"/>
<circle cx="278" cy="212" r="4" fill="#F3F3FA"/>
<circle cx="278" cy="228" r="4" fill="#F3F3FA"/>
<circle cx="278" cy="244" r="4" fill="#F3F3FA"/>
<circle cx="278" cy="260" r="4" fill="#F3F3FA"/>
<circle cx="278" cy="276" r="4" fill="#F3F3FA"/>
<circle cx="230" cy="132" r="4" fill="#F3F3FA"/>
<circle cx="230" cy="148" r="4" fill="#F3F3FA"/>
<circle cx="230" cy="164" r="4" fill="#F3F3FA"/>
<circle cx="230" cy="180" r="4" fill="#F3F3FA"/>
<circle cx="230" cy="196" r="4" fill="#F3F3FA"/>
<circle cx="230" cy="212" r="4" fill="#F3F3FA"/>
<circle cx="230" cy="228" r="4" fill="#F3F3FA"/>
<circle cx="230" cy="244" r="4" fill="#F3F3FA"/>
<circle cx="230" cy="260" r="4" fill="#F3F3FA"/>
<circle cx="230" cy="276" r="4" fill="#F3F3FA"/>
<circle cx="197" cy="132" r="4" fill="#F3F3FA"/>
<circle cx="197" cy="148" r="4" fill="#F3F3FA"/>
<circle cx="197" cy="164" r="4" fill="#F3F3FA"/>
<circle cx="197" cy="180" r="4" fill="#F3F3FA"/>
<circle cx="197" cy="196" r="4" fill="#F3F3FA"/>
<circle cx="197" cy="212" r="4" fill="#F3F3FA"/>
<circle cx="197" cy="228" r="4" fill="#F3F3FA"/>
<circle cx="197" cy="244" r="4" fill="#F3F3FA"/>
<circle cx="197" cy="260" r="4" fill="#F3F3FA"/>
<circle cx="197" cy="276" r="4" fill="#F3F3FA"/>
<circle cx="294" cy="132" r="4" fill="#F3F3FA"/>
<circle cx="294" cy="148" r="4" fill="#F3F3FA"/>
<circle cx="294" cy="164" r="4" fill="#F3F3FA"/>
<circle cx="294" cy="180" r="4" fill="#F3F3FA"/>
<circle cx="294" cy="196" r="4" fill="#F3F3FA"/>
<circle cx="294" cy="212" r="4" fill="#F3F3FA"/>
<circle cx="294" cy="228" r="4" fill="#F3F3FA"/>
<circle cx="294" cy="244" r="4" fill="#F3F3FA"/>
<circle cx="294" cy="260" r="4" fill="#F3F3FA"/>
<circle cx="294" cy="276" r="4" fill="#F3F3FA"/>
<circle cx="246" cy="132" r="4" fill="#F3F3FA"/>
<circle cx="246" cy="148" r="4" fill="#F3F3FA"/>
<circle cx="246" cy="164" r="4" fill="#F3F3FA"/>
<circle cx="246" cy="180" r="4" fill="#F3F3FA"/>
<circle cx="246" cy="196" r="4" fill="#F3F3FA"/>
<circle cx="246" cy="212" r="4" fill="#F3F3FA"/>
<circle cx="246" cy="228" r="4" fill="#F3F3FA"/>
<circle cx="246" cy="244" r="4" fill="#F3F3FA"/>
<circle cx="246" cy="260" r="4" fill="#F3F3FA"/>
<circle cx="246" cy="276" r="4" fill="#F3F3FA"/>
<circle cx="20" cy="148" r="4" fill="#F3F3FA"/>
<circle cx="20" cy="164" r="4" fill="#F3F3FA"/>
<circle cx="20" cy="180" r="4" fill="#F3F3FA"/>
<circle cx="20" cy="196" r="4" fill="#F3F3FA"/>
<circle cx="20" cy="212" r="4" fill="#F3F3FA"/>
<circle cx="20" cy="228" r="4" fill="#F3F3FA"/>
<circle cx="20" cy="244" r="4" fill="#F3F3FA"/>
<circle cx="20" cy="260" r="4" fill="#F3F3FA"/>
<circle cx="20" cy="276" r="4" fill="#F3F3FA"/>
<circle cx="20" cy="292" r="4" fill="#F3F3FA"/>
<circle cx="117" cy="148" r="4" fill="#F3F3FA"/>
<circle cx="117" cy="164" r="4" fill="#F3F3FA"/>
<circle cx="117" cy="180" r="4" fill="#F3F3FA"/>
<circle cx="117" cy="196" r="4" fill="#F3F3FA"/>
<circle cx="117" cy="212" r="4" fill="#F3F3FA"/>
<circle cx="117" cy="228" r="4" fill="#F3F3FA"/>
<circle cx="117" cy="244" r="4" fill="#F3F3FA"/>
<circle cx="117" cy="260" r="4" fill="#F3F3FA"/>
<circle cx="117" cy="276" r="4" fill="#F3F3FA"/>
<circle cx="117" cy="292" r="4" fill="#F3F3FA"/>
<circle cx="69" cy="148" r="4" fill="#F3F3FA"/>
<circle cx="69" cy="164" r="4" fill="#F3F3FA"/>
<circle cx="69" cy="180" r="4" fill="#F3F3FA"/>
<circle cx="69" cy="196" r="4" fill="#F3F3FA"/>
<circle cx="69" cy="212" r="4" fill="#F3F3FA"/>
<circle cx="69" cy="228" r="4" fill="#F3F3FA"/>
<circle cx="69" cy="244" r="4" fill="#F3F3FA"/>
<circle cx="69" cy="260" r="4" fill="#F3F3FA"/>
<circle cx="69" cy="276" r="4" fill="#F3F3FA"/>
<circle cx="69" cy="292" r="4" fill="#F3F3FA"/>
<circle cx="166" cy="148" r="4" fill="#F3F3FA"/>
<circle cx="166" cy="164" r="4" fill="#F3F3FA"/>
<circle cx="166" cy="180" r="4" fill="#F3F3FA"/>
<circle cx="166" cy="196" r="4" fill="#F3F3FA"/>
<circle cx="166" cy="212" r="4" fill="#F3F3FA"/>
<circle cx="166" cy="228" r="4" fill="#F3F3FA"/>
<circle cx="166" cy="244" r="4" fill="#F3F3FA"/>
<circle cx="166" cy="260" r="4" fill="#F3F3FA"/>
<circle cx="166" cy="276" r="4" fill="#F3F3FA"/>
<circle cx="166" cy="292" r="4" fill="#F3F3FA"/>
<circle cx="36" cy="148" r="4" fill="#F3F3FA"/>
<circle cx="36" cy="164" r="4" fill="#F3F3FA"/>
<circle cx="36" cy="180" r="4" fill="#F3F3FA"/>
<circle cx="36" cy="196" r="4" fill="#F3F3FA"/>
<circle cx="36" cy="212" r="4" fill="#F3F3FA"/>
<circle cx="36" cy="228" r="4" fill="#F3F3FA"/>
<circle cx="36" cy="244" r="4" fill="#F3F3FA"/>
<circle cx="36" cy="260" r="4" fill="#F3F3FA"/>
<circle cx="36" cy="276" r="4" fill="#F3F3FA"/>
<circle cx="36" cy="292" r="4" fill="#F3F3FA"/>
<circle cx="133" cy="148" r="4" fill="#F3F3FA"/>
<circle cx="133" cy="164" r="4" fill="#F3F3FA"/>
<circle cx="133" cy="180" r="4" fill="#F3F3FA"/>
<circle cx="133" cy="196" r="4" fill="#F3F3FA"/>
<circle cx="133" cy="212" r="4" fill="#F3F3FA"/>
<circle cx="133" cy="228" r="4" fill="#F3F3FA"/>
<circle cx="133" cy="244" r="4" fill="#F3F3FA"/>
<circle cx="133" cy="260" r="4" fill="#F3F3FA"/>
<circle cx="133" cy="276" r="4" fill="#F3F3FA"/>
<circle cx="133" cy="292" r="4" fill="#F3F3FA"/>
<circle cx="85" cy="148" r="4" fill="#F3F3FA"/>
<circle cx="85" cy="164" r="4" fill="#F3F3FA"/>
<circle cx="85" cy="180" r="4" fill="#F3F3FA"/>
<circle cx="85" cy="196" r="4" fill="#F3F3FA"/>
<circle cx="85" cy="212" r="4" fill="#F3F3FA"/>
<circle cx="85" cy="228" r="4" fill="#F3F3FA"/>
<circle cx="85" cy="244" r="4" fill="#F3F3FA"/>
<circle cx="85" cy="260" r="4" fill="#F3F3FA"/>
<circle cx="85" cy="276" r="4" fill="#F3F3FA"/>
<circle cx="85" cy="292" r="4" fill="#F3F3FA"/>
<circle cx="52" cy="148" r="4" fill="#F3F3FA"/>
<circle cx="52" cy="164" r="4" fill="#F3F3FA"/>
<circle cx="52" cy="180" r="4" fill="#F3F3FA"/>
<circle cx="52" cy="196" r="4" fill="#F3F3FA"/>
<circle cx="52" cy="212" r="4" fill="#F3F3FA"/>
<circle cx="52" cy="228" r="4" fill="#F3F3FA"/>
<circle cx="52" cy="244" r="4" fill="#F3F3FA"/>
<circle cx="52" cy="260" r="4" fill="#F3F3FA"/>
<circle cx="52" cy="276" r="4" fill="#F3F3FA"/>
<circle cx="52" cy="292" r="4" fill="#F3F3FA"/>
<circle cx="149" cy="148" r="4" fill="#F3F3FA"/>
<circle cx="149" cy="164" r="4" fill="#F3F3FA"/>
<circle cx="149" cy="180" r="4" fill="#F3F3FA"/>
<circle cx="149" cy="196" r="4" fill="#F3F3FA"/>
<circle cx="149" cy="212" r="4" fill="#F3F3FA"/>
<circle cx="149" cy="228" r="4" fill="#F3F3FA"/>
<circle cx="149" cy="244" r="4" fill="#F3F3FA"/>
<circle cx="149" cy="260" r="4" fill="#F3F3FA"/>
<circle cx="149" cy="276" r="4" fill="#F3F3FA"/>
<circle cx="149" cy="292" r="4" fill="#F3F3FA"/>
<circle cx="101" cy="148" r="4" fill="#F3F3FA"/>
<circle cx="101" cy="164" r="4" fill="#F3F3FA"/>
<circle cx="101" cy="180" r="4" fill="#F3F3FA"/>
<circle cx="101" cy="196" r="4" fill="#F3F3FA"/>
<circle cx="101" cy="212" r="4" fill="#F3F3FA"/>
<circle cx="101" cy="228" r="4" fill="#F3F3FA"/>
<circle cx="101" cy="244" r="4" fill="#F3F3FA"/>
<circle cx="101" cy="260" r="4" fill="#F3F3FA"/>
<circle cx="101" cy="276" r="4" fill="#F3F3FA"/>
<circle cx="101" cy="292" r="4" fill="#F3F3FA"/>
<circle cx="4" cy="148" r="4" fill="#F3F3FA"/>
<circle cx="4" cy="164" r="4" fill="#F3F3FA"/>
<circle cx="4" cy="180" r="4" fill="#F3F3FA"/>
<circle cx="4" cy="196" r="4" fill="#F3F3FA"/>
<circle cx="4" cy="212" r="4" fill="#F3F3FA"/>
<circle cx="4" cy="228" r="4" fill="#F3F3FA"/>
<circle cx="4" cy="244" r="4" fill="#F3F3FA"/>
<circle cx="4" cy="260" r="4" fill="#F3F3FA"/>
<circle cx="4" cy="276" r="4" fill="#F3F3FA"/>
<circle cx="4" cy="292" r="4" fill="#F3F3FA"/>
<circle cx="101" cy="148" r="4" fill="#F3F3FA"/>
<circle cx="101" cy="164" r="4" fill="#F3F3FA"/>
<circle cx="101" cy="180" r="4" fill="#F3F3FA"/>
<circle cx="101" cy="196" r="4" fill="#F3F3FA"/>
<circle cx="101" cy="212" r="4" fill="#F3F3FA"/>
<circle cx="101" cy="228" r="4" fill="#F3F3FA"/>
<circle cx="101" cy="244" r="4" fill="#F3F3FA"/>
<circle cx="101" cy="260" r="4" fill="#F3F3FA"/>
<circle cx="101" cy="276" r="4" fill="#F3F3FA"/>
<circle cx="101" cy="292" r="4" fill="#F3F3FA"/>
<circle cx="53" cy="148" r="4" fill="#F3F3FA"/>
<circle cx="53" cy="164" r="4" fill="#F3F3FA"/>
<circle cx="53" cy="180" r="4" fill="#F3F3FA"/>
<circle cx="53" cy="196" r="4" fill="#F3F3FA"/>
<circle cx="53" cy="212" r="4" fill="#F3F3FA"/>
<circle cx="53" cy="228" r="4" fill="#F3F3FA"/>
<circle cx="53" cy="244" r="4" fill="#F3F3FA"/>
<circle cx="53" cy="260" r="4" fill="#F3F3FA"/>
<circle cx="53" cy="276" r="4" fill="#F3F3FA"/>
<circle cx="53" cy="292" r="4" fill="#F3F3FA"/>
<circle cx="150" cy="148" r="4" fill="#F3F3FA"/>
<circle cx="150" cy="164" r="4" fill="#F3F3FA"/>
<circle cx="150" cy="180" r="4" fill="#F3F3FA"/>
<circle cx="150" cy="196" r="4" fill="#F3F3FA"/>
<circle cx="150" cy="212" r="4" fill="#F3F3FA"/>
<circle cx="150" cy="228" r="4" fill="#F3F3FA"/>
<circle cx="150" cy="244" r="4" fill="#F3F3FA"/>
<circle cx="150" cy="260" r="4" fill="#F3F3FA"/>
<circle cx="150" cy="276" r="4" fill="#F3F3FA"/>
<circle cx="150" cy="292" r="4" fill="#F3F3FA"/>
<circle cx="20" cy="148" r="4" fill="#F3F3FA"/>
<circle cx="20" cy="164" r="4" fill="#F3F3FA"/>
<circle cx="20" cy="180" r="4" fill="#F3F3FA"/>
<circle cx="20" cy="196" r="4" fill="#F3F3FA"/>
<circle cx="20" cy="212" r="4" fill="#F3F3FA"/>
<circle cx="20" cy="228" r="4" fill="#F3F3FA"/>
<circle cx="20" cy="244" r="4" fill="#F3F3FA"/>
<circle cx="20" cy="260" r="4" fill="#F3F3FA"/>
<circle cx="20" cy="276" r="4" fill="#F3F3FA"/>
<circle cx="20" cy="292" r="4" fill="#F3F3FA"/>
<circle cx="117" cy="148" r="4" fill="#F3F3FA"/>
<circle cx="117" cy="164" r="4" fill="#F3F3FA"/>
<circle cx="117" cy="180" r="4" fill="#F3F3FA"/>
<circle cx="117" cy="196" r="4" fill="#F3F3FA"/>
<circle cx="117" cy="212" r="4" fill="#F3F3FA"/>
<circle cx="117" cy="228" r="4" fill="#F3F3FA"/>
<circle cx="117" cy="244" r="4" fill="#F3F3FA"/>
<circle cx="117" cy="260" r="4" fill="#F3F3FA"/>
<circle cx="117" cy="276" r="4" fill="#F3F3FA"/>
<circle cx="117" cy="292" r="4" fill="#F3F3FA"/>
<circle cx="69" cy="148" r="4" fill="#F3F3FA"/>
<circle cx="69" cy="164" r="4" fill="#F3F3FA"/>
<circle cx="69" cy="180" r="4" fill="#F3F3FA"/>
<circle cx="69" cy="196" r="4" fill="#F3F3FA"/>
<circle cx="69" cy="212" r="4" fill="#F3F3FA"/>
<circle cx="69" cy="228" r="4" fill="#F3F3FA"/>
<circle cx="69" cy="244" r="4" fill="#F3F3FA"/>
<circle cx="69" cy="260" r="4" fill="#F3F3FA"/>
<circle cx="69" cy="276" r="4" fill="#F3F3FA"/>
<circle cx="69" cy="292" r="4" fill="#F3F3FA"/>
<circle cx="36" cy="148" r="4" fill="#F3F3FA"/>
<circle cx="36" cy="164" r="4" fill="#F3F3FA"/>
<circle cx="36" cy="180" r="4" fill="#F3F3FA"/>
<circle cx="36" cy="196" r="4" fill="#F3F3FA"/>
<circle cx="36" cy="212" r="4" fill="#F3F3FA"/>
<circle cx="36" cy="228" r="4" fill="#F3F3FA"/>
<circle cx="36" cy="244" r="4" fill="#F3F3FA"/>
<circle cx="36" cy="260" r="4" fill="#F3F3FA"/>
<circle cx="36" cy="276" r="4" fill="#F3F3FA"/>
<circle cx="36" cy="292" r="4" fill="#F3F3FA"/>
<circle cx="133" cy="148" r="4" fill="#F3F3FA"/>
<circle cx="133" cy="164" r="4" fill="#F3F3FA"/>
<circle cx="133" cy="180" r="4" fill="#F3F3FA"/>
<circle cx="133" cy="196" r="4" fill="#F3F3FA"/>
<circle cx="133" cy="212" r="4" fill="#F3F3FA"/>
<circle cx="133" cy="228" r="4" fill="#F3F3FA"/>
<circle cx="133" cy="244" r="4" fill="#F3F3FA"/>
<circle cx="133" cy="260" r="4" fill="#F3F3FA"/>
<circle cx="133" cy="276" r="4" fill="#F3F3FA"/>
<circle cx="133" cy="292" r="4" fill="#F3F3FA"/>
<circle cx="85" cy="148" r="4" fill="#F3F3FA"/>
<circle cx="85" cy="164" r="4" fill="#F3F3FA"/>
<circle cx="85" cy="180" r="4" fill="#F3F3FA"/>
<circle cx="85" cy="196" r="4" fill="#F3F3FA"/>
<circle cx="85" cy="212" r="4" fill="#F3F3FA"/>
<circle cx="85" cy="228" r="4" fill="#F3F3FA"/>
<circle cx="85" cy="244" r="4" fill="#F3F3FA"/>
<circle cx="85" cy="260" r="4" fill="#F3F3FA"/>
<circle cx="85" cy="276" r="4" fill="#F3F3FA"/>
<circle cx="85" cy="292" r="4" fill="#F3F3FA"/>
<circle cx="4" cy="4" r="4" fill="#F3F3FA"/>
<circle cx="4" cy="20" r="4" fill="#F3F3FA"/>
<circle cx="4" cy="36" r="4" fill="#F3F3FA"/>
<circle cx="4" cy="52" r="4" fill="#F3F3FA"/>
<circle cx="4" cy="68" r="4" fill="#F3F3FA"/>
<circle cx="4" cy="84" r="4" fill="#F3F3FA"/>
<circle cx="4" cy="100" r="4" fill="#F3F3FA"/>
<circle cx="4" cy="116" r="4" fill="#F3F3FA"/>
<circle cx="4" cy="132" r="4" fill="#F3F3FA"/>
<circle cx="4" cy="148" r="4" fill="#F3F3FA"/>
<circle cx="101" cy="4" r="4" fill="#F3F3FA"/>
<circle cx="101" cy="20" r="4" fill="#F3F3FA"/>
<circle cx="101" cy="36" r="4" fill="#F3F3FA"/>
<circle cx="101" cy="52" r="4" fill="#F3F3FA"/>
<circle cx="101" cy="68" r="4" fill="#F3F3FA"/>
<circle cx="101" cy="84" r="4" fill="#F3F3FA"/>
<circle cx="101" cy="100" r="4" fill="#F3F3FA"/>
<circle cx="101" cy="116" r="4" fill="#F3F3FA"/>
<circle cx="101" cy="132" r="4" fill="#F3F3FA"/>
<circle cx="101" cy="148" r="4" fill="#F3F3FA"/>
<circle cx="53" cy="4" r="4" fill="#F3F3FA"/>
<circle cx="53" cy="20" r="4" fill="#F3F3FA"/>
<circle cx="53" cy="36" r="4" fill="#F3F3FA"/>
<circle cx="53" cy="52" r="4" fill="#F3F3FA"/>
<circle cx="53" cy="68" r="4" fill="#F3F3FA"/>
<circle cx="53" cy="84" r="4" fill="#F3F3FA"/>
<circle cx="53" cy="100" r="4" fill="#F3F3FA"/>
<circle cx="53" cy="116" r="4" fill="#F3F3FA"/>
<circle cx="53" cy="132" r="4" fill="#F3F3FA"/>
<circle cx="53" cy="148" r="4" fill="#F3F3FA"/>
<circle cx="150" cy="4" r="4" fill="#F3F3FA"/>
<circle cx="150" cy="20" r="4" fill="#F3F3FA"/>
<circle cx="150" cy="36" r="4" fill="#F3F3FA"/>
<circle cx="150" cy="52" r="4" fill="#F3F3FA"/>
<circle cx="150" cy="68" r="4" fill="#F3F3FA"/>
<circle cx="150" cy="84" r="4" fill="#F3F3FA"/>
<circle cx="150" cy="100" r="4" fill="#F3F3FA"/>
<circle cx="150" cy="116" r="4" fill="#F3F3FA"/>
<circle cx="150" cy="132" r="4" fill="#F3F3FA"/>
<circle cx="150" cy="148" r="4" fill="#F3F3FA"/>
<circle cx="20" cy="4" r="4" fill="#F3F3FA"/>
<circle cx="20" cy="20" r="4" fill="#F3F3FA"/>
<circle cx="20" cy="36" r="4" fill="#F3F3FA"/>
<circle cx="20" cy="52" r="4" fill="#F3F3FA"/>
<circle cx="20" cy="68" r="4" fill="#F3F3FA"/>
<circle cx="20" cy="84" r="4" fill="#F3F3FA"/>
<circle cx="20" cy="100" r="4" fill="#F3F3FA"/>
<circle cx="20" cy="116" r="4" fill="#F3F3FA"/>
<circle cx="20" cy="132" r="4" fill="#F3F3FA"/>
<circle cx="20" cy="148" r="4" fill="#F3F3FA"/>
<circle cx="117" cy="4" r="4" fill="#F3F3FA"/>
<circle cx="117" cy="20" r="4" fill="#F3F3FA"/>
<circle cx="117" cy="36" r="4" fill="#F3F3FA"/>
<circle cx="117" cy="52" r="4" fill="#F3F3FA"/>
<circle cx="117" cy="68" r="4" fill="#F3F3FA"/>
<circle cx="117" cy="84" r="4" fill="#F3F3FA"/>
<circle cx="117" cy="100" r="4" fill="#F3F3FA"/>
<circle cx="117" cy="116" r="4" fill="#F3F3FA"/>
<circle cx="117" cy="132" r="4" fill="#F3F3FA"/>
<circle cx="117" cy="148" r="4" fill="#F3F3FA"/>
<circle cx="69" cy="4" r="4" fill="#F3F3FA"/>
<circle cx="69" cy="20" r="4" fill="#F3F3FA"/>
<circle cx="69" cy="36" r="4" fill="#F3F3FA"/>
<circle cx="69" cy="52" r="4" fill="#F3F3FA"/>
<circle cx="69" cy="68" r="4" fill="#F3F3FA"/>
<circle cx="69" cy="84" r="4" fill="#F3F3FA"/>
<circle cx="69" cy="100" r="4" fill="#F3F3FA"/>
<circle cx="69" cy="116" r="4" fill="#F3F3FA"/>
<circle cx="69" cy="132" r="4" fill="#F3F3FA"/>
<circle cx="69" cy="148" r="4" fill="#F3F3FA"/>
<circle cx="36" cy="4" r="4" fill="#F3F3FA"/>
<circle cx="36" cy="20" r="4" fill="#F3F3FA"/>
<circle cx="36" cy="36" r="4" fill="#F3F3FA"/>
<circle cx="36" cy="52" r="4" fill="#F3F3FA"/>
<circle cx="36" cy="68" r="4" fill="#F3F3FA"/>
<circle cx="36" cy="84" r="4" fill="#F3F3FA"/>
<circle cx="36" cy="100" r="4" fill="#F3F3FA"/>
<circle cx="36" cy="116" r="4" fill="#F3F3FA"/>
<circle cx="36" cy="132" r="4" fill="#F3F3FA"/>
<circle cx="36" cy="148" r="4" fill="#F3F3FA"/>
<circle cx="133" cy="4" r="4" fill="#F3F3FA"/>
<circle cx="133" cy="20" r="4" fill="#F3F3FA"/>
<circle cx="133" cy="36" r="4" fill="#F3F3FA"/>
<circle cx="133" cy="52" r="4" fill="#F3F3FA"/>
<circle cx="133" cy="68" r="4" fill="#F3F3FA"/>
<circle cx="133" cy="84" r="4" fill="#F3F3FA"/>
<circle cx="133" cy="100" r="4" fill="#F3F3FA"/>
<circle cx="133" cy="116" r="4" fill="#F3F3FA"/>
<circle cx="133" cy="132" r="4" fill="#F3F3FA"/>
<circle cx="133" cy="148" r="4" fill="#F3F3FA"/>
<circle cx="85" cy="4" r="4" fill="#F3F3FA"/>
<circle cx="85" cy="20" r="4" fill="#F3F3FA"/>
<circle cx="85" cy="36" r="4" fill="#F3F3FA"/>
<circle cx="85" cy="52" r="4" fill="#F3F3FA"/>
<circle cx="85" cy="68" r="4" fill="#F3F3FA"/>
<circle cx="85" cy="84" r="4" fill="#F3F3FA"/>
<circle cx="85" cy="100" r="4" fill="#F3F3FA"/>
<circle cx="85" cy="116" r="4" fill="#F3F3FA"/>
<circle cx="85" cy="132" r="4" fill="#F3F3FA"/>
<circle cx="85" cy="148" r="4" fill="#F3F3FA"/>
<circle cx="327" cy="4" r="4" fill="#F3F3FA"/>
<circle cx="327" cy="20" r="4" fill="#F3F3FA"/>
<circle cx="327" cy="36" r="4" fill="#F3F3FA"/>
<circle cx="327" cy="52" r="4" fill="#F3F3FA"/>
<circle cx="327" cy="68" r="4" fill="#F3F3FA"/>
<circle cx="327" cy="84" r="4" fill="#F3F3FA"/>
<circle cx="327" cy="100" r="4" fill="#F3F3FA"/>
<circle cx="327" cy="116" r="4" fill="#F3F3FA"/>
<circle cx="327" cy="132" r="4" fill="#F3F3FA"/>
<circle cx="327" cy="148" r="4" fill="#F3F3FA"/>
<circle cx="424" cy="4" r="4" fill="#F3F3FA"/>
<circle cx="424" cy="20" r="4" fill="#F3F3FA"/>
<circle cx="424" cy="36" r="4" fill="#F3F3FA"/>
<circle cx="424" cy="52" r="4" fill="#F3F3FA"/>
<circle cx="424" cy="68" r="4" fill="#F3F3FA"/>
<circle cx="424" cy="84" r="4" fill="#F3F3FA"/>
<circle cx="424" cy="100" r="4" fill="#F3F3FA"/>
<circle cx="424" cy="116" r="4" fill="#F3F3FA"/>
<circle cx="424" cy="132" r="4" fill="#F3F3FA"/>
<circle cx="424" cy="148" r="4" fill="#F3F3FA"/>
<circle cx="376" cy="4" r="4" fill="#F3F3FA"/>
<circle cx="376" cy="20" r="4" fill="#F3F3FA"/>
<circle cx="376" cy="36" r="4" fill="#F3F3FA"/>
<circle cx="376" cy="52" r="4" fill="#F3F3FA"/>
<circle cx="376" cy="68" r="4" fill="#F3F3FA"/>
<circle cx="376" cy="84" r="4" fill="#F3F3FA"/>
<circle cx="376" cy="100" r="4" fill="#F3F3FA"/>
<circle cx="376" cy="116" r="4" fill="#F3F3FA"/>
<circle cx="376" cy="132" r="4" fill="#F3F3FA"/>
<circle cx="376" cy="148" r="4" fill="#F3F3FA"/>
<circle cx="473" cy="4" r="4" fill="#F3F3FA"/>
<circle cx="473" cy="20" r="4" fill="#F3F3FA"/>
<circle cx="473" cy="36" r="4" fill="#F3F3FA"/>
<circle cx="473" cy="52" r="4" fill="#F3F3FA"/>
<circle cx="473" cy="68" r="4" fill="#F3F3FA"/>
<circle cx="473" cy="84" r="4" fill="#F3F3FA"/>
<circle cx="473" cy="100" r="4" fill="#F3F3FA"/>
<circle cx="473" cy="116" r="4" fill="#F3F3FA"/>
<circle cx="473" cy="132" r="4" fill="#F3F3FA"/>
<circle cx="473" cy="148" r="4" fill="#F3F3FA"/>
<circle cx="343" cy="4" r="4" fill="#F3F3FA"/>
<circle cx="343" cy="20" r="4" fill="#F3F3FA"/>
<circle cx="343" cy="36" r="4" fill="#F3F3FA"/>
<circle cx="343" cy="52" r="4" fill="#F3F3FA"/>
<circle cx="343" cy="68" r="4" fill="#F3F3FA"/>
<circle cx="343" cy="84" r="4" fill="#F3F3FA"/>
<circle cx="343" cy="100" r="4" fill="#F3F3FA"/>
<circle cx="343" cy="116" r="4" fill="#F3F3FA"/>
<circle cx="343" cy="132" r="4" fill="#F3F3FA"/>
<circle cx="343" cy="148" r="4" fill="#F3F3FA"/>
<circle cx="440" cy="4" r="4" fill="#F3F3FA"/>
<circle cx="440" cy="20" r="4" fill="#F3F3FA"/>
<circle cx="440" cy="36" r="4" fill="#F3F3FA"/>
<circle cx="440" cy="52" r="4" fill="#F3F3FA"/>
<circle cx="440" cy="68" r="4" fill="#F3F3FA"/>
<circle cx="440" cy="84" r="4" fill="#F3F3FA"/>
<circle cx="440" cy="100" r="4" fill="#F3F3FA"/>
<circle cx="440" cy="116" r="4" fill="#F3F3FA"/>
<circle cx="440" cy="132" r="4" fill="#F3F3FA"/>
<circle cx="440" cy="148" r="4" fill="#F3F3FA"/>
<circle cx="392" cy="4" r="4" fill="#F3F3FA"/>
<circle cx="392" cy="20" r="4" fill="#F3F3FA"/>
<circle cx="392" cy="36" r="4" fill="#F3F3FA"/>
<circle cx="392" cy="52" r="4" fill="#F3F3FA"/>
<circle cx="392" cy="68" r="4" fill="#F3F3FA"/>
<circle cx="392" cy="84" r="4" fill="#F3F3FA"/>
<circle cx="392" cy="100" r="4" fill="#F3F3FA"/>
<circle cx="392" cy="116" r="4" fill="#F3F3FA"/>
<circle cx="392" cy="132" r="4" fill="#F3F3FA"/>
<circle cx="392" cy="148" r="4" fill="#F3F3FA"/>
<circle cx="359" cy="4" r="4" fill="#F3F3FA"/>
<circle cx="359" cy="20" r="4" fill="#F3F3FA"/>
<circle cx="359" cy="36" r="4" fill="#F3F3FA"/>
<circle cx="359" cy="52" r="4" fill="#F3F3FA"/>
<circle cx="359" cy="68" r="4" fill="#F3F3FA"/>
<circle cx="359" cy="84" r="4" fill="#F3F3FA"/>
<circle cx="359" cy="100" r="4" fill="#F3F3FA"/>
<circle cx="359" cy="116" r="4" fill="#F3F3FA"/>
<circle cx="359" cy="132" r="4" fill="#F3F3FA"/>
<circle cx="359" cy="148" r="4" fill="#F3F3FA"/>
<circle cx="456" cy="4" r="4" fill="#F3F3FA"/>
<circle cx="456" cy="20" r="4" fill="#F3F3FA"/>
<circle cx="456" cy="36" r="4" fill="#F3F3FA"/>
<circle cx="456" cy="52" r="4" fill="#F3F3FA"/>
<circle cx="456" cy="68" r="4" fill="#F3F3FA"/>
<circle cx="456" cy="84" r="4" fill="#F3F3FA"/>
<circle cx="456" cy="100" r="4" fill="#F3F3FA"/>
<circle cx="456" cy="116" r="4" fill="#F3F3FA"/>
<circle cx="456" cy="132" r="4" fill="#F3F3FA"/>
<circle cx="456" cy="148" r="4" fill="#F3F3FA"/>
<circle cx="408" cy="4" r="4" fill="#F3F3FA"/>
<circle cx="408" cy="20" r="4" fill="#F3F3FA"/>
<circle cx="408" cy="36" r="4" fill="#F3F3FA"/>
<circle cx="408" cy="52" r="4" fill="#F3F3FA"/>
<circle cx="408" cy="68" r="4" fill="#F3F3FA"/>
<circle cx="408" cy="84" r="4" fill="#F3F3FA"/>
<circle cx="408" cy="100" r="4" fill="#F3F3FA"/>
<circle cx="408" cy="116" r="4" fill="#F3F3FA"/>
<circle cx="408" cy="132" r="4" fill="#F3F3FA"/>
<circle cx="408" cy="148" r="4" fill="#F3F3FA"/>
<circle cx="165" cy="4" r="4" fill="#F3F3FA"/>
<circle cx="165" cy="20" r="4" fill="#F3F3FA"/>
<circle cx="165" cy="36" r="4" fill="#F3F3FA"/>
<circle cx="165" cy="52" r="4" fill="#F3F3FA"/>
<circle cx="165" cy="68" r="4" fill="#F3F3FA"/>
<circle cx="165" cy="84" r="4" fill="#F3F3FA"/>
<circle cx="165" cy="100" r="4" fill="#F3F3FA"/>
<circle cx="165" cy="116" r="4" fill="#F3F3FA"/>
<circle cx="165" cy="132" r="4" fill="#F3F3FA"/>
<circle cx="165" cy="148" r="4" fill="#F3F3FA"/>
<circle cx="262" cy="4" r="4" fill="#F3F3FA"/>
<circle cx="262" cy="20" r="4" fill="#F3F3FA"/>
<circle cx="262" cy="36" r="4" fill="#F3F3FA"/>
<circle cx="262" cy="52" r="4" fill="#F3F3FA"/>
<circle cx="262" cy="68" r="4" fill="#F3F3FA"/>
<circle cx="262" cy="84" r="4" fill="#F3F3FA"/>
<circle cx="262" cy="100" r="4" fill="#F3F3FA"/>
<circle cx="262" cy="116" r="4" fill="#F3F3FA"/>
<circle cx="262" cy="132" r="4" fill="#F3F3FA"/>
<circle cx="262" cy="148" r="4" fill="#F3F3FA"/>
<circle cx="214" cy="4" r="4" fill="#F3F3FA"/>
<circle cx="214" cy="20" r="4" fill="#F3F3FA"/>
<circle cx="214" cy="36" r="4" fill="#F3F3FA"/>
<circle cx="214" cy="52" r="4" fill="#F3F3FA"/>
<circle cx="214" cy="68" r="4" fill="#F3F3FA"/>
<circle cx="214" cy="84" r="4" fill="#F3F3FA"/>
<circle cx="214" cy="100" r="4" fill="#F3F3FA"/>
<circle cx="214" cy="116" r="4" fill="#F3F3FA"/>
<circle cx="214" cy="132" r="4" fill="#F3F3FA"/>
<circle cx="214" cy="148" r="4" fill="#F3F3FA"/>
<circle cx="311" cy="4" r="4" fill="#F3F3FA"/>
<circle cx="311" cy="20" r="4" fill="#F3F3FA"/>
<circle cx="311" cy="36" r="4" fill="#F3F3FA"/>
<circle cx="311" cy="52" r="4" fill="#F3F3FA"/>
<circle cx="311" cy="68" r="4" fill="#F3F3FA"/>
<circle cx="311" cy="84" r="4" fill="#F3F3FA"/>
<circle cx="311" cy="100" r="4" fill="#F3F3FA"/>
<circle cx="311" cy="116" r="4" fill="#F3F3FA"/>
<circle cx="311" cy="132" r="4" fill="#F3F3FA"/>
<circle cx="311" cy="148" r="4" fill="#F3F3FA"/>
<circle cx="181" cy="4" r="4" fill="#F3F3FA"/>
<circle cx="181" cy="20" r="4" fill="#F3F3FA"/>
<circle cx="181" cy="36" r="4" fill="#F3F3FA"/>
<circle cx="181" cy="52" r="4" fill="#F3F3FA"/>
<circle cx="181" cy="68" r="4" fill="#F3F3FA"/>
<circle cx="181" cy="84" r="4" fill="#F3F3FA"/>
<circle cx="181" cy="100" r="4" fill="#F3F3FA"/>
<circle cx="181" cy="116" r="4" fill="#F3F3FA"/>
<circle cx="181" cy="132" r="4" fill="#F3F3FA"/>
<circle cx="181" cy="148" r="4" fill="#F3F3FA"/>
<circle cx="278" cy="4" r="4" fill="#F3F3FA"/>
<circle cx="278" cy="20" r="4" fill="#F3F3FA"/>
<circle cx="278" cy="36" r="4" fill="#F3F3FA"/>
<circle cx="278" cy="52" r="4" fill="#F3F3FA"/>
<circle cx="278" cy="68" r="4" fill="#F3F3FA"/>
<circle cx="278" cy="84" r="4" fill="#F3F3FA"/>
<circle cx="278" cy="100" r="4" fill="#F3F3FA"/>
<circle cx="278" cy="116" r="4" fill="#F3F3FA"/>
<circle cx="278" cy="132" r="4" fill="#F3F3FA"/>
<circle cx="278" cy="148" r="4" fill="#F3F3FA"/>
<circle cx="230" cy="4" r="4" fill="#F3F3FA"/>
<circle cx="230" cy="20" r="4" fill="#F3F3FA"/>
<circle cx="230" cy="36" r="4" fill="#F3F3FA"/>
<circle cx="230" cy="52" r="4" fill="#F3F3FA"/>
<circle cx="230" cy="68" r="4" fill="#F3F3FA"/>
<circle cx="230" cy="84" r="4" fill="#F3F3FA"/>
<circle cx="230" cy="100" r="4" fill="#F3F3FA"/>
<circle cx="230" cy="116" r="4" fill="#F3F3FA"/>
<circle cx="230" cy="132" r="4" fill="#F3F3FA"/>
<circle cx="230" cy="148" r="4" fill="#F3F3FA"/>
<circle cx="197" cy="4" r="4" fill="#F3F3FA"/>
<circle cx="197" cy="20" r="4" fill="#F3F3FA"/>
<circle cx="197" cy="36" r="4" fill="#F3F3FA"/>
<circle cx="197" cy="52" r="4" fill="#F3F3FA"/>
<circle cx="197" cy="68" r="4" fill="#F3F3FA"/>
<circle cx="197" cy="84" r="4" fill="#F3F3FA"/>
<circle cx="197" cy="100" r="4" fill="#F3F3FA"/>
<circle cx="197" cy="116" r="4" fill="#F3F3FA"/>
<circle cx="197" cy="132" r="4" fill="#F3F3FA"/>
<circle cx="197" cy="148" r="4" fill="#F3F3FA"/>
<circle cx="294" cy="4" r="4" fill="#F3F3FA"/>
<circle cx="294" cy="20" r="4" fill="#F3F3FA"/>
<circle cx="294" cy="36" r="4" fill="#F3F3FA"/>
<circle cx="294" cy="52" r="4" fill="#F3F3FA"/>
<circle cx="294" cy="68" r="4" fill="#F3F3FA"/>
<circle cx="294" cy="84" r="4" fill="#F3F3FA"/>
<circle cx="294" cy="100" r="4" fill="#F3F3FA"/>
<circle cx="294" cy="116" r="4" fill="#F3F3FA"/>
<circle cx="294" cy="132" r="4" fill="#F3F3FA"/>
<circle cx="294" cy="148" r="4" fill="#F3F3FA"/>
<circle cx="246" cy="4" r="4" fill="#F3F3FA"/>
<circle cx="246" cy="20" r="4" fill="#F3F3FA"/>
<circle cx="246" cy="36" r="4" fill="#F3F3FA"/>
<circle cx="246" cy="52" r="4" fill="#F3F3FA"/>
<circle cx="246" cy="68" r="4" fill="#F3F3FA"/>
<circle cx="246" cy="84" r="4" fill="#F3F3FA"/>
<circle cx="246" cy="100" r="4" fill="#F3F3FA"/>
<circle cx="246" cy="116" r="4" fill="#F3F3FA"/>
<circle cx="246" cy="132" r="4" fill="#F3F3FA"/>
<circle cx="246" cy="148" r="4" fill="#F3F3FA"/>
<circle cx="68" cy="4" r="4" fill="#F3F3FA"/>
<circle cx="68" cy="20" r="4" fill="#F3F3FA"/>
<circle cx="68" cy="36" r="4" fill="#F3F3FA"/>
<circle cx="68" cy="52" r="4" fill="#F3F3FA"/>
<circle cx="68" cy="68" r="4" fill="#F3F3FA"/>
<circle cx="68" cy="84" r="4" fill="#F3F3FA"/>
<circle cx="68" cy="100" r="4" fill="#F3F3FA"/>
<circle cx="68" cy="116" r="4" fill="#F3F3FA"/>
<circle cx="68" cy="132" r="4" fill="#F3F3FA"/>
<circle cx="68" cy="148" r="4" fill="#F3F3FA"/>
<circle cx="165" cy="4" r="4" fill="#F3F3FA"/>
<circle cx="165" cy="20" r="4" fill="#F3F3FA"/>
<circle cx="165" cy="36" r="4" fill="#F3F3FA"/>
<circle cx="165" cy="52" r="4" fill="#F3F3FA"/>
<circle cx="165" cy="68" r="4" fill="#F3F3FA"/>
<circle cx="165" cy="84" r="4" fill="#F3F3FA"/>
<circle cx="165" cy="100" r="4" fill="#F3F3FA"/>
<circle cx="165" cy="116" r="4" fill="#F3F3FA"/>
<circle cx="165" cy="132" r="4" fill="#F3F3FA"/>
<circle cx="165" cy="148" r="4" fill="#F3F3FA"/>
<circle cx="117" cy="4" r="4" fill="#F3F3FA"/>
<circle cx="117" cy="20" r="4" fill="#F3F3FA"/>
<circle cx="117" cy="36" r="4" fill="#F3F3FA"/>
<circle cx="117" cy="52" r="4" fill="#F3F3FA"/>
<circle cx="117" cy="68" r="4" fill="#F3F3FA"/>
<circle cx="117" cy="84" r="4" fill="#F3F3FA"/>
<circle cx="117" cy="100" r="4" fill="#F3F3FA"/>
<circle cx="117" cy="116" r="4" fill="#F3F3FA"/>
<circle cx="117" cy="132" r="4" fill="#F3F3FA"/>
<circle cx="117" cy="148" r="4" fill="#F3F3FA"/>
<circle cx="214" cy="4" r="4" fill="#F3F3FA"/>
<circle cx="214" cy="20" r="4" fill="#F3F3FA"/>
<circle cx="214" cy="36" r="4" fill="#F3F3FA"/>
<circle cx="214" cy="52" r="4" fill="#F3F3FA"/>
<circle cx="214" cy="68" r="4" fill="#F3F3FA"/>
<circle cx="214" cy="84" r="4" fill="#F3F3FA"/>
<circle cx="214" cy="100" r="4" fill="#F3F3FA"/>
<circle cx="214" cy="116" r="4" fill="#F3F3FA"/>
<circle cx="214" cy="132" r="4" fill="#F3F3FA"/>
<circle cx="214" cy="148" r="4" fill="#F3F3FA"/>
<circle cx="84" cy="4" r="4" fill="#F3F3FA"/>
<circle cx="84" cy="20" r="4" fill="#F3F3FA"/>
<circle cx="84" cy="36" r="4" fill="#F3F3FA"/>
<circle cx="84" cy="52" r="4" fill="#F3F3FA"/>
<circle cx="84" cy="68" r="4" fill="#F3F3FA"/>
<circle cx="84" cy="84" r="4" fill="#F3F3FA"/>
<circle cx="84" cy="100" r="4" fill="#F3F3FA"/>
<circle cx="84" cy="116" r="4" fill="#F3F3FA"/>
<circle cx="84" cy="132" r="4" fill="#F3F3FA"/>
<circle cx="84" cy="148" r="4" fill="#F3F3FA"/>
<circle cx="181" cy="4" r="4" fill="#F3F3FA"/>
<circle cx="181" cy="20" r="4" fill="#F3F3FA"/>
<circle cx="181" cy="36" r="4" fill="#F3F3FA"/>
<circle cx="181" cy="52" r="4" fill="#F3F3FA"/>
<circle cx="181" cy="68" r="4" fill="#F3F3FA"/>
<circle cx="181" cy="84" r="4" fill="#F3F3FA"/>
<circle cx="181" cy="100" r="4" fill="#F3F3FA"/>
<circle cx="181" cy="116" r="4" fill="#F3F3FA"/>
<circle cx="181" cy="132" r="4" fill="#F3F3FA"/>
<circle cx="181" cy="148" r="4" fill="#F3F3FA"/>
<circle cx="133" cy="4" r="4" fill="#F3F3FA"/>
<circle cx="133" cy="20" r="4" fill="#F3F3FA"/>
<circle cx="133" cy="36" r="4" fill="#F3F3FA"/>
<circle cx="133" cy="52" r="4" fill="#F3F3FA"/>
<circle cx="133" cy="68" r="4" fill="#F3F3FA"/>
<circle cx="133" cy="84" r="4" fill="#F3F3FA"/>
<circle cx="133" cy="100" r="4" fill="#F3F3FA"/>
<circle cx="133" cy="116" r="4" fill="#F3F3FA"/>
<circle cx="133" cy="132" r="4" fill="#F3F3FA"/>
<circle cx="133" cy="148" r="4" fill="#F3F3FA"/>
<circle cx="100" cy="4" r="4" fill="#F3F3FA"/>
<circle cx="100" cy="20" r="4" fill="#F3F3FA"/>
<circle cx="100" cy="36" r="4" fill="#F3F3FA"/>
<circle cx="100" cy="52" r="4" fill="#F3F3FA"/>
<circle cx="100" cy="68" r="4" fill="#F3F3FA"/>
<circle cx="100" cy="84" r="4" fill="#F3F3FA"/>
<circle cx="100" cy="100" r="4" fill="#F3F3FA"/>
<circle cx="100" cy="116" r="4" fill="#F3F3FA"/>
<circle cx="100" cy="132" r="4" fill="#F3F3FA"/>
<circle cx="100" cy="148" r="4" fill="#F3F3FA"/>
<circle cx="197" cy="4" r="4" fill="#F3F3FA"/>
<circle cx="197" cy="20" r="4" fill="#F3F3FA"/>
<circle cx="197" cy="36" r="4" fill="#F3F3FA"/>
<circle cx="197" cy="52" r="4" fill="#F3F3FA"/>
<circle cx="197" cy="68" r="4" fill="#F3F3FA"/>
<circle cx="197" cy="84" r="4" fill="#F3F3FA"/>
<circle cx="197" cy="100" r="4" fill="#F3F3FA"/>
<circle cx="197" cy="116" r="4" fill="#F3F3FA"/>
<circle cx="197" cy="132" r="4" fill="#F3F3FA"/>
<circle cx="197" cy="148" r="4" fill="#F3F3FA"/>
<circle cx="149" cy="4" r="4" fill="#F3F3FA"/>
<circle cx="149" cy="20" r="4" fill="#F3F3FA"/>
<circle cx="149" cy="36" r="4" fill="#F3F3FA"/>
<circle cx="149" cy="52" r="4" fill="#F3F3FA"/>
<circle cx="149" cy="68" r="4" fill="#F3F3FA"/>
<circle cx="149" cy="84" r="4" fill="#F3F3FA"/>
<circle cx="149" cy="100" r="4" fill="#F3F3FA"/>
<circle cx="149" cy="116" r="4" fill="#F3F3FA"/>
<circle cx="149" cy="132" r="4" fill="#F3F3FA"/>
<circle cx="149" cy="148" r="4" fill="#F3F3FA"/>
</svg>
