<svg width="96" height="28" viewBox="0 0 96 28" fill="none" xmlns="http://www.w3.org/2000/svg">
<path fill-rule="evenodd" clip-rule="evenodd" d="M6.8455 0.182385C3.75676 0.805596 1.41767 2.88542 0.392081 5.92065L0.0547902 6.91858L0.0140166 13.5821C-0.0331169 21.3011 -0.0146631 21.4958 0.952071 23.4469C1.94487 25.4506 3.80676 27.0566 5.91031 27.7233C6.77043 27.996 6.88976 28 14.0776 28H21.3721L22.3696 27.6497C24.579 26.8741 26.2518 25.3763 27.2329 23.2949C28.0482 21.5657 28.0431 21.6236 28.0431 14.0168C28.0431 7.22146 28.0395 7.12154 27.7586 6.15155C26.8346 2.96002 24.2299 0.660522 20.9356 0.128248C19.6995 -0.0714643 7.87882 -0.0260594 6.8455 0.182385ZM13.9529 5.72618C13.9529 5.79079 13.8956 5.87898 13.8255 5.92239C13.5771 6.07583 12.9762 7.43789 12.8309 8.17623C12.5267 9.72341 13.0526 11.0431 14.7633 13.0253C15.4167 13.7825 16.0138 14.6293 16.2933 15.1948C17.1327 16.8941 16.8824 18.3395 15.433 20.1617C14.8134 20.9406 13.1555 22.449 12.9189 22.449C12.8558 22.449 12.8472 22.3507 12.9 22.2307C13.3323 21.2472 13.5727 20.2989 13.5756 19.5654C13.5806 18.2855 13.051 17.3495 11.2257 15.4129C9.60817 13.6967 9.0574 12.8042 8.81774 11.5106C8.44554 9.50137 9.81129 7.57073 12.589 6.17961C13.7691 5.58871 13.9529 5.52759 13.9529 5.72618ZM14.4728 6.8874C14.5521 8.37233 15.0178 9.04007 17.3664 11.0362C18.8853 12.3272 19.7708 14.0708 19.6551 15.5431C19.571 16.6145 19.0979 17.5659 18.165 18.5404C17.4312 19.307 16.3607 20.1592 16.2593 20.0577C16.2344 20.0327 16.4207 19.5959 16.6733 19.0868C17.106 18.2147 17.1326 18.0922 17.1326 16.9682C17.1326 15.8782 17.098 15.7045 16.7319 14.9562C16.5007 14.4837 15.8547 13.5864 15.2051 12.8356C14.5857 12.1197 13.8963 11.1703 13.673 10.7258C13.3151 10.0133 13.2671 9.79838 13.2671 8.91059C13.2671 7.99573 13.3105 7.8156 13.7416 6.94328C14.0024 6.41512 14.2628 5.98302 14.3201 5.98302C14.3775 5.98302 14.4462 6.38993 14.4728 6.8874ZM66.5607 9.10319C65.363 9.30577 64.7391 9.89792 64.2987 11.2495C64.089 11.8927 64.0412 12.3793 64.0313 13.9665C64.0233 15.2304 64.0786 16.1376 64.1907 16.5861C64.7128 18.6743 65.5723 19.1861 68.308 19.0372C70.3691 18.9249 70.4382 18.9024 70.4382 18.3435V17.8845L68.8849 17.9363C67.0369 17.9978 66.579 17.9276 66.078 17.5059C65.4993 17.0188 65.2898 16.1112 65.2898 14.0913C65.2898 10.6238 65.9263 9.93248 68.9085 10.1603C69.5098 10.2062 70.1001 10.2713 70.22 10.3048C70.4013 10.3555 70.4382 10.2824 70.4382 9.87198C70.4382 9.29654 70.4498 9.30166 68.7508 9.10706C67.5086 8.9646 67.3805 8.96448 66.5607 9.10319ZM74.5251 9.11193C73.6447 9.24103 73.2045 9.4617 72.715 10.0194C72.0139 10.818 71.8722 11.5032 71.8722 14.0913C71.8722 16.62 72.0108 17.3355 72.6473 18.0924C73.2737 18.8371 73.8151 19.009 75.5506 19.0141C77.3641 19.0193 78.0549 18.8247 78.6566 18.139C79.2291 17.4867 79.4355 16.6374 79.5077 14.6356C79.6459 10.8006 78.9569 9.42915 76.7295 9.10719C75.7465 8.96498 75.5236 8.96548 74.5251 9.11193ZM30.5666 14.0532L30.5992 19.0186H31.2227H31.8462L31.9085 15.1912L31.9709 11.3638L33.3349 13.5072C34.0851 14.686 34.9329 16.0154 35.2188 16.4614C35.5047 16.9073 35.9988 17.6791 36.3166 18.1766C36.8764 19.0525 36.9103 19.0809 37.3941 19.0809H37.8937V14.0913V9.10157H37.2703H36.6468V12.9062C36.6468 14.9988 36.6048 16.7092 36.5533 16.7071C36.5018 16.7051 36.0498 16.0455 35.5488 15.2414C35.0477 14.4373 33.9722 12.7409 33.1584 11.4717L31.679 9.16394L31.1065 9.1259L30.534 9.08773L30.5666 14.0532ZM40.8198 9.3508C39.8441 9.83406 39.8264 9.91826 39.8264 14.0913C39.8264 17.5762 39.84 17.7942 40.082 18.2077C40.5572 19.0191 41.2941 19.1655 44.1752 19.0214L45.9987 18.9303V18.4443V17.9583H44.0845C42.0958 17.9583 41.4674 17.8462 41.2578 17.4544C41.1907 17.3289 41.1357 16.6331 41.1357 15.9082V14.5902H43.2554H45.3752V14.0913V13.5923L43.536 13.5905C42.5244 13.5897 41.5706 13.555 41.4162 13.5137C41.1484 13.4418 41.1357 13.3805 41.1357 12.157C41.1357 10.2421 41.0596 10.2965 43.8053 10.2475L45.9987 10.2082V9.73601V9.26399L44.7829 9.1834C42.4812 9.03097 41.3711 9.07774 40.8198 9.3508ZM47.5096 9.38224C47.591 9.53667 48.2699 10.6374 49.0183 11.8284C49.7667 13.0195 50.3516 14.0654 50.3181 14.1529C50.2846 14.2403 49.6696 15.2652 48.9516 16.4304C47.1285 19.3888 47.236 19.0809 48.0263 19.0809C48.7809 19.0809 48.4876 19.424 50.209 16.5282C50.6387 15.8053 51.0315 15.2156 51.0818 15.2174C51.1322 15.2194 51.3659 15.5421 51.6011 15.9347C51.8364 16.3273 52.3818 17.1957 52.8131 17.8647L53.5975 19.0809H54.2246C54.5696 19.0809 54.8518 19.035 54.8518 18.9789C54.8518 18.9229 54.3024 18.0107 53.6309 16.9518C52.9593 15.8932 52.2875 14.8261 52.1379 14.5809L51.8659 14.135L52.7771 12.6474C53.2783 11.8292 53.9786 10.6968 54.3333 10.1307L54.9782 9.10157L54.2604 9.10307L53.5425 9.10469L52.4203 11.0342C51.8031 12.0954 51.2443 12.9469 51.1786 12.9263C51.1129 12.9057 50.5285 12.0368 49.8798 10.9953L48.7004 9.10157H48.0309C47.376 9.10157 47.3647 9.10768 47.5096 9.38224ZM55.7246 9.66291V10.2242H57.2209H58.7172V14.6526V19.0809H59.3407H59.9641V14.6526V10.2242H61.4604H62.9567V9.66291V9.10157H59.3407H55.7246V9.66291ZM81.4111 14.082V19.0809H82.0314H82.6518L82.6861 17.0539L82.7203 15.0268L83.719 14.991C84.3895 14.9671 84.7876 15.0081 84.9305 15.1158C85.0475 15.2041 85.5371 16.1183 86.0184 17.1474L86.8937 19.0186L87.519 19.0562C87.863 19.0771 88.1444 19.0672 88.1444 19.0344C88.1444 19.0016 87.7005 18.0471 87.1579 16.9133L86.1714 14.8518L86.5905 14.7133C87.5731 14.389 88.134 13.0941 87.9638 11.5425C87.8533 10.535 87.4882 9.80287 86.9198 9.44935C86.488 9.18066 86.313 9.16157 83.9361 9.12353L81.4111 9.08323V14.082ZM90.7718 9.32012C90.5366 9.44 90.228 9.69659 90.086 9.89007C89.8402 10.2251 89.8261 10.4237 89.7941 14.0066C89.7623 17.5678 89.7738 17.7927 90.0065 18.1698C90.5404 19.0357 91.1247 19.1585 94.0536 19.0212L96 18.9299V18.4544V17.9788L93.8069 17.9374L91.6137 17.8959L91.3089 17.541C91.0224 17.2077 91.006 17.109 91.0393 15.9194L91.0747 14.6526L93.2256 14.6184L95.3765 14.5844V14.0883V13.5923L93.475 13.5905C92.4291 13.5897 91.4471 13.555 91.2929 13.5137C91.0261 13.4421 91.0123 13.3784 91.0123 12.2125C91.0123 11.0968 91.0394 10.9551 91.313 10.6366L91.6136 10.2866L93.8068 10.2475L96 10.2082V9.73601V9.26399L94.7843 9.1834C92.5568 9.03583 91.2411 9.08062 90.7718 9.32012ZM76.6497 10.231C77.8238 10.4828 78.1568 11.1526 78.2584 13.4675C78.412 16.9601 77.8292 17.9621 75.6481 17.9555C74.3676 17.9516 73.7578 17.658 73.3943 16.8705C73.1436 16.3275 73.1191 16.0791 73.1191 14.0913C73.1191 12.1186 73.145 11.8523 73.3879 11.3262C73.5359 11.0061 73.8038 10.648 73.9835 10.5302C74.6099 10.1196 75.6082 10.0074 76.6497 10.231ZM85.9547 10.3682C86.4093 10.5755 86.6597 11.027 86.7286 11.7634C86.8074 12.6079 86.5516 13.4354 86.1098 13.7653C85.8031 13.9945 85.5855 14.0249 84.2415 14.0268L82.7203 14.0289L82.6859 12.1266L82.6515 10.2242H84.1452C85.0084 10.2242 85.7722 10.285 85.9547 10.3682ZM9.27162 13.8662C9.40105 14.0855 10.1457 14.9415 10.9263 15.7685C13.1704 18.1459 13.5252 19.1988 12.7757 21.2548C12.5863 21.7744 12.3925 22.1995 12.3451 22.1995C12.2978 22.1995 12.1951 21.9609 12.1171 21.6693C11.9064 20.8816 11.5179 20.388 10.2781 19.3324C8.73408 18.0179 8.52883 17.6005 8.52896 15.778C8.52921 14.5038 8.71712 13.4675 8.94805 13.4675C8.99655 13.4675 9.14207 13.6469 9.27162 13.8662Z" fill="white"/>
</svg>
