<svg width="260" height="369" viewBox="0 0 260 369" fill="none" xmlns="http://www.w3.org/2000/svg">
<g opacity="0.4">
<path d="M194.138 87.8571C180.807 111.012 156.958 127.827 130.734 132.559C107.992 136.659 84.6331 132.051 61.589 133.526C38.5393 134.999 13.1294 145.293 5.39439 167.136C0.0836343 182.131 4.62143 199.107 13.1004 212.495C21.5849 225.886 33.6318 236.523 44.9511 247.602C56.2673 258.685 67.2525 270.803 72.6906 285.709C79.5771 304.606 76.2913 326.931 64.2473 343.109" stroke="#18283C" stroke-width="0.4" stroke-miterlimit="10"/>
<path d="M189.993 97.0171C177.455 118.797 155.072 134.639 130.495 139.145C109.18 143.046 87.3018 138.764 65.709 140.196C44.1075 141.63 20.2808 151.351 12.9902 171.885C7.98416 185.984 12.1973 201.92 20.1167 214.477C28.0328 227.039 39.3068 237.004 49.8886 247.389C60.4705 257.774 70.7372 269.138 75.7949 283.126C82.207 300.861 79.0832 321.842 67.7598 337.06" stroke="#18283C" stroke-width="0.4" stroke-miterlimit="10"/>
<path d="M185.761 106.121C174.058 126.442 153.119 141.199 130.09 145.336C110.119 148.931 89.5967 144.872 69.3561 146.159C49.11 147.442 26.7971 156.469 20.0169 175.64C15.3552 188.803 19.3506 203.703 26.8064 215.462C34.2622 227.221 44.8517 236.56 54.7974 246.293C64.7431 256.027 74.3937 266.67 79.1747 279.76C85.23 296.347 82.3559 315.949 71.7794 330.143" stroke="#18283C" stroke-width="0.4" stroke-miterlimit="10"/>
<path d="M181.632 115.288C170.77 134.153 151.341 147.856 129.989 151.715C111.468 155.057 92.4414 151.309 73.6739 152.513C54.9065 153.717 34.2051 162.106 27.9039 179.896C23.5775 192.111 27.2672 205.938 34.1767 216.844C41.0806 227.747 50.897 236.415 60.1102 245.435C69.3259 254.464 78.2705 264.333 82.6949 276.478C88.2902 291.867 85.6126 310.052 75.8028 323.233" stroke="#18283C" stroke-width="0.4" stroke-miterlimit="10"/>
<path d="M176.997 125.303C167.022 142.632 149.157 155.206 129.506 158.724C112.465 161.779 94.9512 158.306 77.6779 159.396C60.4046 160.486 41.3628 168.172 35.5849 184.516C31.6173 195.741 35.0246 208.452 41.3988 218.482C47.7643 228.515 56.8065 236.485 65.3003 244.789C73.7941 253.094 82.0365 262.18 86.1182 273.34C91.2938 287.494 88.8503 304.208 79.8309 316.309" stroke="#18283C" stroke-width="0.4" stroke-miterlimit="10"/>
</g>
</svg>
